<ttFont>
<head>
    <!-- Most of this table will be recalculated by the compiler -->
    <tableVersion value="1.0"/>
    <fontRevision value="1.0"/>
    <checkSumAdjustment value="0x54c8dd6f"/>
    <magicNumber value="0x5f0f3cf5"/>
    <flags value="00000000 00000011"/>
    <unitsPerEm value="2048"/>
    <created value="Thu Aug 15 18:59:23 2019"/>
    <modified value="Fri Aug 16 02:19:19 2019"/>
    <xMin value="-448"/>
    <yMin value="-509"/>
    <xMax value="3484"/>
    <yMax value="1959"/>
<macStyle value="00000000 00000000"/>
    <lowestRecPPEM value="3"/>
    <fontDirectionHint value="2"/>
    <indexToLocFormat value="0"/>
    <glyphDataFormat value="0"/>
  </head>
          <CharString index="0">
            -1048 109 callsubr
            return
          </CharString>
          <CharString index="1">
            rmoveto
            -344 25 callsubr
            return
          </CharString>
          <CharString index="2">
            rmoveto
            -469 359 -283 366 446 287 334 418 return
          </CharString>
          <CharString index="3">
            241 20 rmoveto
            335 138 288 334 return
          </CharString>
          <CharString index="4">
            469 -360 283 -366 -445 -287 -334 -418 vhcurveto
            return
          </CharString>
          <CharString index="5">
            482 104 callsubr
            return
          </CharString>
          <CharString index="6">
            304 -216 214 -286 -295 -222 -216 -311 return
          </CharString>
          <CharString index="7">
            87 callsubr
            endchar
          </CharString>
          <CharString index="8">
            rmoveto
            -434 1177 -170 0 -432 -1171 -59 -158 -23 -24 -134 -15 rlinecurve
            -76 470 76 vlineto
            -162 20 -20 26 51 146 rrcurveto
            81 232 522 0 82 -232 51 -145 -20 -27 -162 -20 rlinecurve
            -76 return
          </CharString>
          <CharString index="9">
            59 callsubr
            endchar
          </CharString>
          <CharString index="10">
            rmoveto
            -35 callgsubr
          </CharString>
          <CharString index="11">
            rmoveto
            -32 callgsubr
          </CharString>
          <CharString index="12">
            1570 rmoveto
            -2 callgsubr
            return
          </CharString>
          <CharString index="13">
            34 callsubr
            endchar
          </CharString>
          <CharString index="14">
            -566 -76 vlineto
            159 -14 16 -18 -90 vvcurveto
            return
          </CharString>
          <CharString index="15">
            rmoveto
            295 223 216 311 return
          </CharString>
          <CharString index="16">
            136 callsubr
            endchar
          </CharString>
          <CharString index="17">
            1165 rmoveto
            -3 callgsubr
            return
          </CharString>
          <CharString index="18">
            1610 rmoveto
            -16 callgsubr
            return
          </CharString>
          <CharString index="19">
            rmoveto
            -34 callsubr
            30 callsubr
            endchar
          </CharString>
          <CharString index="20">
            -641 11 callsubr
            return
          </CharString>
          <CharString index="21">
            626 -104 callgsubr
            -487 10 callsubr
            482 103 callsubr
            538 vlineto
            204 -142 118 -207 return
          </CharString>
          <CharString index="22">
            rmoveto
            -322 215 -193 282 return
          </CharString>
          <CharString index="23">
            -41 callsubr
            endchar
          </CharString>
          <CharString index="24">
            38 callsubr
            endchar
          </CharString>
          <CharString index="25">
            -496 vlineto
            -210 139 -120 203 153 112 70 93 58 vhcurveto
            -152 vlineto
            return
          </CharString>
          <CharString index="26">
            rmoveto
            -94 callgsubr
            183 callsubr
            endchar
          </CharString>
          <CharString index="27">
            44 callsubr
            endchar
          </CharString>
          <CharString index="28">
            rmoveto
            1048 vlineto
            90 16 18 159 14 vhcurveto
            76 return
          </CharString>
          <CharString index="29">
            -76 hlineto
            159 -14 16 -18 -90 vvcurveto
            return
          </CharString>
          <CharString index="30">
            rmoveto
            546 117 -546 hlineto
            endchar
          </CharString>
          <CharString index="31">
            6 callsubr
            endchar
          </CharString>
          <CharString index="32">
            1849 135 callsubr
            return
          </CharString>
          <CharString index="33">
            1570 -57 callgsubr
            return
          </CharString>
          <CharString index="34">
            rmoveto
            149 94 75 112 112 -86 73 -126 -74 -62 -26 -31 -25 hvcurveto
            -69 vlineto
            9 18 37 8 37 hhcurveto
            66 52 -31 -53 -57 -54 -30 -68 -60 -49 14 20 -36 hvcurveto
            -75 vlineto
            -28 37 69 -23 81 hhcurveto
            endchar
          </CharString>
          <CharString index="35">
            1228 rmoveto
            -21 callgsubr
            return
          </CharString>
          <CharString index="36">
            1165 rmoveto
            209 203 203 -203 99 0 -238 364 -130 0 -238 -364 rlineto
            return
          </CharString>
          <CharString index="37">
            rmoveto
            -46 callgsubr
            338 hmoveto
            -46 callgsubr
            return
          </CharString>
          <CharString index="38">
            rmoveto
            -339 25 callsubr
            -87 callsubr
            return
          </CharString>
          <CharString index="39">
            507 76 vlineto
            -147 13 -16 12 74 vvcurveto
            return
          </CharString>
          <CharString index="40">
            1527 rmoveto
            -209 -203 -203 203 -99 0 238 -364 130 0 238 364 rlineto
            return
          </CharString>
          <CharString index="41">
            1608 -101 callgsubr
            return
          </CharString>
          <CharString index="42">
            rlineto
            -84 callgsubr
            return
          </CharString>
          <CharString index="43">
            rmoveto
            194 182 189 -182 92 0 -222 327 -120 0 -222 -327 rlineto
            endchar
          </CharString>
          <CharString index="44">
            1235 rmoveto
            -20 callgsubr
            458 hmoveto
            -20 callgsubr
            return
          </CharString>
          <CharString index="45">
            558 76 vlineto
            -148 14 -19 17 87 vvcurveto
            return
          </CharString>
          <CharString index="46">
            1048 -41 callgsubr
            return
          </CharString>
          <CharString index="47">
            rmoveto
            306 -751 -82 -158 -102 -194 -63 -117 rlinecurve
            -4 180 vlineto
            167 460 74 179 241 583 56 136 20 12 102 15 rlinecurve
            76 -398 -76 vlineto
            138 -11 25 -82 callgsubr
            endchar
          </CharString>
          <CharString index="48">
            181 140 142 267 260 -144 149 -168 -181 -140 -143 -266 -261 145 -148 167 hvcurveto
            return
          </CharString>
          <CharString index="49">
            1165 rmoveto
            95 hlineto
            -186 364 rlineto
            -227 -12 hlineto
            return
          </CharString>
          <CharString index="50">
            226 73 35 283 9 return
          </CharString>
          <CharString index="51">
            1214 rmoveto
            92 81 76 192 hvcurveto
            -86 hlineto
            -98 -4 -22 -33 -41 hhcurveto
            -28 -26 15 23 -28 hvcurveto
            -30 25 rlineto
            37 -47 -42 29 -61 hhcurveto
            -92 -81 -76 -192 hvcurveto
            86 hlineto
            98 4 22 33 41 hhcurveto
            28 26 -15 -23 28 hvcurveto
            30 -25 rlineto
            -37 47 43 -29 60 hhcurveto
            return
          </CharString>
          <CharString index="52">
            rmoveto
            47 37 32 42 41 106 callsubr
            -41 -42 100 callsubr
            42 41 105 callsubr
            -41 -42 37 -32 47 hvcurveto
            return
          </CharString>
          <CharString index="53">
            rmoveto
            341 -539 rlineto
            -430 vlineto
            -97 -22 -23 -169 -15 vhcurveto
            -76 597 9 callsubr
            168 callsubr
            endchar
          </CharString>
          <CharString index="54">
            -464 -742 463 -11 callsubr
            -48 callsubr
            -107 callsubr
            return
          </CharString>
          <CharString index="55">
            1269 rmoveto
            588 130 -588 hlineto
            return
          </CharString>
          <CharString index="56">
            405 1012 -69 callsubr
            return
          </CharString>
          <CharString index="57">
            -653 vlineto
            -275 -33 -157 -161 -136 vhcurveto
            48 -65 55 41 rlineto
            235 177 53 147 279 vvcurveto
            endchar
          </CharString>
          <CharString index="58">
            -102 callgsubr
            -1114 11 callsubr
            return
          </CharString>
          <CharString index="59">
            77 -558 -76 vlineto
            159 -14 16 -18 -90 vvcurveto
            return
          </CharString>
          <CharString index="60">
            267 114 267 -114 0 84 -243 165 -50 0 -241 -165 rlineto
            return
          </CharString>
          <CharString index="61">
            1570 rmoveto
            93 hlineto
            -163 280 rlineto
            -226 -9 hlineto
            return
          </CharString>
          <CharString index="62">
            1631 rmoveto
            530 119 -530 hlineto
            return
          </CharString>
          <CharString index="63">
            62 2 rcurveline
            -1145 -16 callsubr
            return
          </CharString>
          <CharString index="64">
            1585 170 callsubr
            return
          </CharString>
          <CharString index="65">
            597 76 vlineto
            -170 15 -21 return
          </CharString>
          <CharString index="66">
            491 60 callsubr
            return
          </CharString>
          <CharString index="67">
            198 -79 callsubr
            return
          </CharString>
          <CharString index="68">
            -62 callsubr
            endchar
          </CharString>
          <CharString index="69">
            23 97 vvcurveto
            1145 return
          </CharString>
          <CharString index="70">
            1535 rmoveto
            -104 -75 -42 -43 -40 hvcurveto
            -71 vlineto
            23 30 54 21 62 hhcurveto
            70 45 -34 -51 -56 -53 -46 -99 -71 hvcurveto
            94 hlineto
            163 73 58 62 82 vvcurveto
            90 -80 63 -125 vhcurveto
            return
          </CharString>
          <CharString index="71">
            1222 rmoveto
            -24 callgsubr
            return
          </CharString>
          <CharString index="72">
            -231 136 -70 137 97 112 39 43 49 vhcurveto
            2 callgsubr
            return
          </CharString>
          <CharString index="73">
            -1087 -78 callsubr
            -107 callsubr
            return
          </CharString>
          <CharString index="74">
            1312 1444 -83 callgsubr
            return
          </CharString>
          <CharString index="75">
            -76 vlineto
            122 -13 15 -13 -57 vvcurveto
            return
          </CharString>
          <CharString index="76">
            1521 -88 callgsubr
            return
          </CharString>
          <CharString index="77">
            57 15 13 123 13 vhcurveto
            76 return
          </CharString>
          <CharString index="78">
            -153 -106 callsubr
            return
          </CharString>
          <CharString index="79">
            rmoveto
            -156 100 -110 137 -38 vhcurveto
            -136 -48 -77 -70 -96 vvcurveto
            -96 84 -61 112 -9 vhcurveto
            -174 -37 -91 -78 -100 vvcurveto
            -154 173 -108 310 311 210 150 204 168 -135 96 -228 vhcurveto
            -249 hlineto
            -101 -55 33 64 49 34 42 88 28 hvcurveto
            -9 55 34 -3 34 hhcurveto
            218 201 132 217 92 -41 89 -64 46 hvcurveto
            256 -12 0 105 -363 -19 rlineto
            25 -54 -75 16 -83 hhcurveto
            -242 -189 -143 -209 hvcurveto
            201 12 rmoveto
            142 89 104 131 145 89 -99 -159 -143 -97 -102 -122 -131 -104 92 165 vhcurveto
            -67 -881 rmoveto
            84 57 60 102 19 vhcurveto
            264 hlineto
            160 66 -59 -90 -116 -129 -86 -209 -199 -112 78 110 hvcurveto
            endchar
          </CharString>
          <CharString index="80">
            -306 -221 274 396 364 191 252 336 102 callsubr
            69 hlineto
            -11 -52 callgsubr
          </CharString>
          <CharString index="81">
            rmoveto
            993 vlineto
            90 16 18 159 14 vhcurveto
            76 -93 callsubr
            -962 vlineto
            -315 -79 -149 -222 -148 vhcurveto
            37 -66 rlineto
            306 166 174 143 338 vvcurveto
            endchar
          </CharString>
          <CharString index="82">
            rmoveto
            160 115 96 147 -8 hvcurveto
            -81 hlineto
            -68 -81 -46 -105 -104 -82 46 68 vhcurveto
            -81 hlineto
            -147 -8 115 -96 160 hhcurveto
            return
          </CharString>
          <CharString index="83">
            1529 rmoveto
            -190 -12 hlineto
            273 -352 rlineto
            97 hlineto
            189 364 rmoveto
            -180 -12 hlineto
            191 -352 rlineto
            95 hlineto
            return
          </CharString>
          <CharString index="84">
            122 120 66 121 121 -97 68 -122 3 hvcurveto
            return
          </CharString>
          <CharString index="85">
            rmoveto
            84 73 48 111 hvcurveto
            -83 hlineto
            -43 -27 -18 -38 -25 -25 return
          </CharString>
          <CharString index="86">
            1521 rmoveto
            534 -89 0 83 -534 146 rlineto
            return
          </CharString>
          <CharString index="87">
            582 76 vlineto
            -170 15 -21 23 97 vvcurveto
            return
          </CharString>
          <CharString index="88">
            418 1444 -5 callsubr
            return
          </CharString>
          <CharString index="89">
            1601 rmoveto
            182 callsubr
            return
          </CharString>
          <CharString index="90">
            1176 rmoveto
            181 callsubr
            return
          </CharString>
          <CharString index="91">
            vlineto
            -97 -21 -23 -169 -15 vhcurveto
            -76 return
          </CharString>
          <CharString index="92">
            1898 185 callsubr
            return
          </CharString>
          <CharString index="93">
            1836 7 callsubr
            return
          </CharString>
          <CharString index="94">
            1165 53 callsubr
            return
          </CharString>
          <CharString index="95">
            -152 -115 -66 -91 -59 vhcurveto
            return
          </CharString>
          <CharString index="96">
            vlineto
            87 19 17 148 14 vhcurveto
            return
          </CharString>
          <CharString index="97">
            -482 13 callsubr
            return
          </CharString>
          <CharString index="98">
            rmoveto
            269 -764 113 0 263 723 246 -723 113 0 281 764 50 135 23 11 99 15 rlinecurve
            76 -371 -76 vlineto
            116 -9 21 -24 -39 -112 rrcurveto
            -187 -538 -174 538 -35 109 19 28 103 8 rlinecurve
            76 -434 -76 vlineto
            102 -8 23 -28 -39 -109 rrcurveto
            -190 -539 -175 539 -36 111 19 24 115 10 rlinecurve
            76 -469 -76 vlineto
            100 -21 32 -20 42 -120 rrcurveto
            endchar
          </CharString>
          <CharString index="99">
            rmoveto
            -471 351 -282 396 202 196 56 77 112 vhcurveto
            387 vlineto
            90 15 13 163 15 vhcurveto
            75 -577 -75 vlineto
            183 -16 14 -12 -89 vvcurveto
            -342 vlineto
            -46 -67 -98 -24 -121 hhcurveto
            -307 -221 274 396 364 190 252 337 102 callsubr
            70 hlineto
            -12 -52 callgsubr
          </CharString>
          <CharString index="100">
            rmoveto
            85 75 68 173 hvcurveto
            -80 hlineto
            -88 -3 -21 -30 -38 hhcurveto
            -26 -24 13 21 -26 hvcurveto
            -28 23 rlineto
            33 -44 -39 26 -57 hhcurveto
            -85 -75 -68 -173 hvcurveto
            80 hlineto
            88 3 21 30 38 hhcurveto
            26 24 -14 -20 26 hvcurveto
            28 -23 rlineto
            -33 44 40 -26 56 hhcurveto
            endchar
          </CharString>
          <CharString index="101">
            7 13 -40 vhcurveto
            -28 10 rlineto
            15 -42 -38 8 -96 callgsubr
            18 38 25 25 -6 -14 40 vhcurveto
            28 -9 rlineto
            -15 42 38 -9 45 hhcurveto
            return
          </CharString>
          <CharString index="102">
            rmoveto
            -376 -76 hlineto
            149 -16 18 -22 -106 vvcurveto
            -4 -1011 rlineto
            -100 -17 -19 -150 -18 vhcurveto
            -76 468 76 vlineto
            -155 14 -18 18 -2 106 rrcurveto
            -20 1015 848 -1229 209 0 7 1231 return
          </CharString>
          <CharString index="103">
            rmoveto
            82 71 56 131 hvcurveto
            -81 hlineto
            -50 -26 -21 -37 -24 -25 7 16 -39 vhcurveto
            -27 11 rlineto
            18 -40 -38 10 -44 hhcurveto
            -80 -73 -56 -53 callgsubr
            -11 44 hhcurveto
            return
          </CharString>
          <CharString index="104">
            410 1485 rmoveto
            51 callsubr
            -1114 11 callsubr
            -41 callsubr
            return
          </CharString>
          <CharString index="105">
            rmoveto
            164 118 81 125 -8 hvcurveto
            -83 hlineto
            -58 -83 -39 -108 -107 -84 39 58 vhcurveto
            -83 hlineto
            -125 -8 118 -81 164 hhcurveto
            return
          </CharString>
          <CharString index="106">
            rmoveto
            -472 351 -281 396 200 198 63 66 90 vhcurveto
            12 307 rlineto
            -90 callgsubr
            return
          </CharString>
          <CharString index="107">
            16 436 rlineto
            -70 hlineto
            -65 -298 -85 -35 -224 -7 return
          </CharString>
          <CharString index="108">
            vlineto
            63 -2 283 -9 73 -35 38 -226 rlinecurve
            70 hlineto
            return
          </CharString>
          <CharString index="109">
            1448 1244 267 -99 callsubr
            return
          </CharString>
          <CharString index="110">
            1 100 16 19 149 18 rlinecurve
            -11 callgsubr
            return
          </CharString>
          <CharString index="111">
            1662 460 194 18 callsubr
            return
          </CharString>
          <CharString index="112">
            rmoveto
            152 420 -179 0 -45 -420 rlineto
            return
          </CharString>
          <CharString index="113">
            566 76 vlineto
            -159 14 -16 18 90 vvcurveto
            return
          </CharString>
          <CharString index="114">
            rmoveto
            119 vlineto
            -547 -125 rlineto
            -70 vlineto
            return
          </CharString>
          <CharString index="115">
            125 callsubr
            -27 callgsubr
            return
          </CharString>
          <CharString index="116">
            76 vlineto
            -169 15 -21 23 97 vvcurveto
            return
          </CharString>
          <CharString index="117">
            vlineto
            -57 -15 -13 -122 -13 vhcurveto
            -76 return
          </CharString>
          <CharString index="118">
            vlineto
            -60 -16 -14 -131 -13 vhcurveto
            -76 return
          </CharString>
          <CharString index="119">
            755 192 279 rmoveto
            return
          </CharString>
          <CharString index="120">
            -76 vlineto
            52 callsubr
            return
          </CharString>
          <CharString index="121">
            rmoveto
            376 -1177 170 0 349 1119 336 -1119 171 0 375 1172 51 159 30 22 134 15 rlinecurve
            76 -470 -76 vlineto
            162 -20 12 -24 -43 -147 rrcurveto
            -284 -973 -287 973 -85 callgsubr
            186 callsubr
            endchar
          </CharString>
          <CharString index="122">
            1347 rmoveto
            -124 120 -88 151 151 120 88 124 124 -120 89 -151 -151 -120 -89 -124 vhcurveto
            154 hmoveto
            77 51 51 66 66 51 -51 -77 -77 -51 -51 -66 -66 -51 51 77 vhcurveto
            return
          </CharString>
          <CharString index="123">
            rmoveto
            511 183 vlineto
            453 -705 122 callsubr
            -320 -392 rcurveline
            -181 455 hlineto
            87 19 17 148 14 vhcurveto
            -48 callsubr
            -107 callsubr
            -39 callsubr
          </CharString>
          <CharString index="124">
            1456 rmoveto
            82 71 56 130 hvcurveto
            -81 hlineto
            -50 -26 -20 -37 -24 -25 7 16 -39 vhcurveto
            -27 11 rlineto
            17 -40 -38 10 -44 hhcurveto
            -80 -73 -56 -53 callgsubr
            -10 44 hhcurveto
            return
          </CharString>
          <CharString index="125">
            rmoveto
            497 742 -497 vlineto
            -39 callgsubr
            return
          </CharString>
          <CharString index="126">
            rmoveto
            243 -192 149 -371 vhcurveto
            -581 -78 callsubr
            -107 callsubr
            -62 callsubr
            113 callsubr
            endchar
          </CharString>
          <CharString index="127">
            rmoveto
            169 134 62 83 71 hvcurveto
            115 callsubr
            -315 216 -200 274 vhcurveto
            endchar
          </CharString>
          <CharString index="128">
            -27 -61 -57 -56 -29 -69 -56 -59 17 25 -35 hvcurveto
            -76 vlineto
            -38 42 71 -24 90 hhcurveto
            return
          </CharString>
          <CharString index="129">
            -236 -8 rcurveline
            1147 10 callgsubr
            -107 callsubr
            vlineto
            return
          </CharString>
          <CharString index="130">
            1245 382 1012 -106 callsubr
            -82 callsubr
            return
          </CharString>
          <CharString index="131">
            1195 1124 hmoveto
            0 callsubr
            22 callsubr
            return
          </CharString>
          <CharString index="132">
            -41 0 -67 80 -19 rlineto
            58 -14 9 -13 -54 vvcurveto
            return
          </CharString>
          <CharString index="133">
            1245 102 488 47 callsubr
            return
          </CharString>
          <CharString index="134">
            1465 744 74 callsubr
            return
          </CharString>
          <CharString index="135">
            1101 102 493 -85 callsubr
            return
          </CharString>
          <CharString index="136">
            1900 rmoveto
            179 callsubr
            return
          </CharString>
          <CharString index="137">
            1132 vlineto
            80 callsubr
            return
          </CharString>
          <CharString index="138">
            1850 -70 callgsubr
            return
          </CharString>
          <CharString index="139">
            -155 -117 -70 -93 -59 vhcurveto
            return
          </CharString>
          <CharString index="140">
            -12 -360 rlineto
            70 hlineto
            38 return
          </CharString>
          <CharString index="141">
            rmoveto
            147 124 68 77 59 hvcurveto
            -90 22 71 -49 100 hhcurveto
            71 57 24 23 34 hvcurveto
            70 vlineto
            -7 -15 -21 -3 -22 hhcurveto
            -60 -50 31 90 hvcurveto
            498 vlineto
            215 -143 98 -226 -224 -191 -94 -139 -65 51 -46 64 65 49 45 61 41 -22 36 -32 18 vhcurveto
            26 46 60 13 66 hhcurveto
            143 100 -59 -179 hvcurveto
            -79 vlineto
            -238 -52 rlineto
            -269 -59 -114 -93 -165 vvcurveto
            -148 128 -107 170 vhcurveto
            -98 290 rmoveto
            107 74 60 194 43 vhcurveto
            153 33 rlineto
            -310 vlineto
            -66 -46 -83 -41 -97 hhcurveto
            -114 -81 65 109 hvcurveto
            return
          </CharString>
          <CharString index="142">
            rmoveto
            -111 -159 -34 -26 -131 -12 rrcurveto
            -76 484 76 vlineto
            -170 21 -6 31 80 122 rrcurveto
            251 381 260 -381 83 -120 -9 -33 -170 -21 rlinecurve
            -76 591 76 vlineto
            -110 19 -43 23 -72 106 rrcurveto
            -359 526 302 431 105 149 35 26 130 12 rlinecurve
            76 -484 -76 vlineto
            170 -21 6 -31 -80 -122 rrcurveto
            -238 -366 -250 366 -82 120 9 33 170 21 rlinecurve
            76 -592 -76 vlineto
            113 -19 40 -23 73 -106 347 -509 rcurveline
            endchar
          </CharString>
          <CharString index="143">
            rmoveto
            -374 283 -179 290 358 230 217 356 4 vhcurveto
            9 848 rlineto
            9 10 -1 10 hhcurveto
            153 69 68 108 81 -46 87 -61 54 hvcurveto
            -76 hlineto
            19 -28 15 -56 -53 vvcurveto
            -118 -1 -73 -89 -192 hhcurveto
            -145 -76 hlineto
            165 -20 15 -20 -96 vvcurveto
            5 -672 rlineto
            -296 2 -157 -152 -257 hhcurveto
            -238 -184 149 286 hvcurveto
            -55 callgsubr
            endchar
          </CharString>
          <CharString index="144">
            rmoveto
            -415 -76 hlineto
            148 -16 22 -22 -3 -106 rrcurveto
            -25 -1011 -3 -101 -15 -19 -148 -17 rlinecurve
            -76 458 76 vlineto
            -152 17 -16 20 105 vvcurveto
            3 1022 497 -1240 108 0 74 194 405 1046 22 -1046 2 -87 -17 -17 -151 -14 rlinecurve
            -76 556 76 vlineto
            -155 14 -18 18 -2 -58 callgsubr
            endchar
          </CharString>
          <CharString index="145">
            170 134 62 83 72 vhcurveto
            76 vlineto
            -59 -63 -104 -37 -101 hhcurveto
            -237 -156 162 257 -10 hvcurveto
            692 hlineto
            2 18 1 26 25 vvcurveto
            267 -149 164 -271 -281 -196 -217 -312 vhcurveto
            474 426 rmoveto
            148 84 -107 -200 hvcurveto
            -2 -503 vlineto
            212 17 108 97 146 hhcurveto
            return
          </CharString>
          <CharString index="146">
            rmoveto
            289 -235 140 -365 vhcurveto
            -556 -78 callsubr
            -107 callsubr
            -20 callsubr
            347 165 vlineto
            354 246 157 300 hvcurveto
            -232 -16 rmoveto
            -228 -144 -108 -295 -13 vhcurveto
            -94 -4 0 710 94 -4 rlineto
            292 -12 147 -120 -221 vvcurveto
            endchar
          </CharString>
          <CharString index="147">
            303 -150 232 -222 126 vhcurveto
            -3 18 18 -2 19 hhcurveto
            177 123 55 133 85 -51 82 -65 55 hvcurveto
            -75 hlineto
            18 -28 15 -60 -49 vvcurveto
            -124 -67 -77 -141 vhcurveto
            -97 -106 24 -140 145 callsubr
            -100 callsubr
          </CharString>
          <CharString index="148">
            rmoveto
            -347 -41 0 -67 81 -19 rlineto
            60 -14 9 -13 -54 vvcurveto
            -496 vlineto
            -210 140 -120 202 153 112 70 93 59 vhcurveto
            -152 vlineto
            343 42 0 66 -81 19 rlineto
            -60 14 -9 14 54 vvcurveto
            166 callsubr
            endchar
          </CharString>
          <CharString index="149">
            16 405 rlineto
            -70 hlineto
            -52 -271 -93 -25 -278 -9 rrcurveto
            -369 -12 847 1286 rlineto
            70 -1064 vlineto
            -12 -360 rlineto
            70 hlineto
            40 212 51 41 255 7 rrcurveto
            414 12 -846 -1286 rlineto
            -70 vlineto
            return
          </CharString>
          <CharString index="150">
            rmoveto
            -8 -296 rlineto
            70 hlineto
            45 170 42 26 149 5 rrcurveto
            259 9 -573 -846 rlineto
            -69 812 vlineto
            8 312 rlineto
            -70 hlineto
            -39 -186 -56 -26 -125 -4 rrcurveto
            -299 -10 581 846 rlineto
            69 vlineto
            return
          </CharString>
          <CharString index="151">
            341 42 0 66 -79 19 rlineto
            -59 14 -9 14 54 vvcurveto
            814 vlineto
            -345 -41 0 -67 81 -19 rlineto
            57 -14 9 -13 -54 vvcurveto
            -588 vlineto
            -62 -38 -78 -91 callgsubr
            return
          </CharString>
          <CharString index="152">
            134 176 130 117 -131 491 -123 hlineto
            -394 -521 rlineto
            -87 384 vlineto
            117 vmoveto
            -268 hlineto
            268 368 rlineto
            endchar
          </CharString>
          <CharString index="153">
            570 vlineto
            60 52 129 43 115 hhcurveto
            40 38 -4 -6 21 hvcurveto
            12 15 7 28 28 vvcurveto
            58 -29 52 -81 -92 -93 -71 -141 -124 vhcurveto
            return
          </CharString>
          <CharString index="154">
            rmoveto
            -320 191 -190 220 148 135 71 103 55 vhcurveto
            -163 vlineto
            340 42 0 66 -78 19 rlineto
            -60 14 -9 14 54 vvcurveto
            return
          </CharString>
          <CharString index="155">
            572 vlineto
            317 -4 0 105 -317 -6 rlineto
            192 -35 vlineto
            -299 -238 rlineto
            -53 137 vlineto
            return
          </CharString>
          <CharString index="156">
            274 96 274 -96 0 70 -249 140 -51 0 -247 -140 rlineto
            return
          </CharString>
          <CharString index="157">
            55 43 41 54 54 -43 42 -55 -55 -43 -42 -54 -54 43 -41 55 hvcurveto
            return
          </CharString>
          <CharString index="158">
            -344 -41 0 -66 80 -19 rlineto
            58 -14 9 -14 -54 vvcurveto
            return
          </CharString>
          <CharString index="159">
            131 -13 16 -14 -60 vvcurveto
            -675 11 callsubr
            return
          </CharString>
          <CharString index="160">
            rmoveto
            183 352 rlineto
            12 -197 vlineto
            -72 -364 rlineto
            return
          </CharString>
          <CharString index="161">
            675 vlineto
            60 15 14 132 13 vhcurveto
            76 return
          </CharString>
          <CharString index="162">
            rmoveto
            547 -76 0 70 -547 125 rlineto
            return
          </CharString>
          <CharString index="163">
            1812 rmoveto
            547 91 -547 hlineto
            return
          </CharString>
          <CharString index="164">
            1483 rmoveto
            534 106 -534 hlineto
            return
          </CharString>
          <CharString index="165">
            1517 rmoveto
            178 callsubr
            return
          </CharString>
          <CharString index="166">
            571 76 vlineto
            -61 callgsubr
            return
          </CharString>
          <CharString index="167">
            76 vlineto
            -131 13 -16 14 60 vvcurveto
            return
          </CharString>
          <CharString index="168">
            vlineto
            -60 -15 -14 -132 -13 vhcurveto
            -76 return
          </CharString>
          <CharString index="169">
            -1187 -92 callsubr
            return
          </CharString>
          <CharString index="170">
            1836 55 callsubr
            return
          </CharString>
          <CharString index="171">
            -490 rmoveto
            -23 callsubr
            return
          </CharString>
          <CharString index="172">
            -148 -135 -72 -105 -56 vhcurveto
            return
          </CharString>
          <CharString index="173">
            603 -22 -92 callsubr
            return
          </CharString>
          <CharString index="174">
            vlineto
            147 -14 19 -17 -87 vvcurveto
            return
          </CharString>
          <CharString index="175">
            rmoveto
            -259 320 215 260 87 107 23 25 109 17 rlinecurve
            76 -404 -76 vlineto
            140 -11 13 -19 -65 -82 rrcurveto
            -178 -222 -180 222 -66 82 13 19 143 11 rlinecurve
            76 -482 -76 vlineto
            82 -16 26 -18 64 -79 rrcurveto
            260 -322 -201 -253 -91 -114 -27 -29 -119 -18 rlinecurve
            -76 413 76 vlineto
            -131 11 -21 20 74 96 rrcurveto
            163 213 178 -221 75 -92 -17 -15 -141 -12 rlinecurve
            -76 489 76 vlineto
            -87 17 -31 20 -67 83 rrcurveto
            endchar
          </CharString>
          <CharString index="176">
            rmoveto
            -161 119 -87 184 -50 vhcurveto
            82 -22 rlineto
            142 -39 56 -47 -89 vvcurveto
            -93 -84 -66 -133 -147 -124 77 166 -36 vhcurveto
            -70 hlineto
            8 -255 rlineto
            -50 75 135 -42 161 hhcurveto
            218 176 116 179 166 -113 89 -186 50 hvcurveto
            -81 22 rlineto
            -127 34 -76 42 92 vvcurveto
            92 85 55 125 134 105 -76 -146 28 vhcurveto
            70 hlineto
            -8 250 rlineto
            40 -59 -116 36 -155 hhcurveto
            -235 -153 -108 -175 hvcurveto
            return
          </CharString>
          <CharString index="177">
            rmoveto
            163 135 86 158 111 -78 88 -125 19 hvcurveto
            103 21 71 70 88 vvcurveto
            106 -93 71 -141 -143 -100 -79 -115 -38 vhcurveto
            49 -24 rlineto
            74 36 69 35 80 hhcurveto
            86 54 -42 -71 -80 -80 -47 -173 -20 hvcurveto
            -62 vlineto
            4 20 28 3 24 hhcurveto
            117 81 -62 -106 -100 -77 -51 -90 -51 -40 13 20 -26 hvcurveto
            22 12 15 24 28 vvcurveto
            43 -33 32 -42 -42 -33 -33 -45 -94 105 -75 147 vhcurveto
            endchar
          </CharString>
          <CharString index="178">
            rmoveto
            -71 -68 -27 -31 -39 hvcurveto
            -74 vlineto
            4 13 22 6 33 hhcurveto
            75 40 -39 -97 hvcurveto
            -85 -6 -251 -64 vvcurveto
            -216 122 -160 258 241 200 170 382 289 -100 204 -142 -78 -55 -69 -93 25 vhcurveto
            139 -42 94 -161 -202 vvcurveto
            -238 -116 -115 -163 -162 -68 106 183 vhcurveto
            62 10 249 70 vvcurveto
            167 -72 72 -132 vhcurveto
            endchar
          </CharString>
          <CharString index="179">
            1761 -22 callsubr
            6 14 -40 vhcurveto
            -28 9 rlineto
            16 -42 -38 8 -96 callgsubr
            18 38 25 25 -7 -97 callgsubr
            -391 -275 rmoveto
            49 callsubr
            return
          </CharString>
          <CharString index="180">
            1716 858 -28 rmoveto
            413 338 338 413 413 -338 338 -413 -413 -338 -338 -413 -413 338 -338 413 hvcurveto
            74 vmoveto
            -365 -300 305 372 372 300 305 365 365 300 -305 -372 -372 -300 -305 -365 hvcurveto
            return
          </CharString>
          <CharString index="181">
            rmoveto
            441 -348 259 -452 vhcurveto
            -596 -78 callsubr
            -107 callsubr
            -98 callgsubr
            -238 -16 94 callsubr
            0 1268 1 callgsubr
            return
          </CharString>
          <CharString index="182">
            1918 rmoveto
            -67 -60 -22 -21 -32 hvcurveto
            -60 vlineto
            13 25 46 13 47 hhcurveto
            58 35 -20 -34 -33 -33 -19 -72 -18 hvcurveto
            66 -45 rlineto
            101 28 68 34 74 vvcurveto
            73 -92 37 -90 vhcurveto
            -496 -432 rmoveto
            49 callsubr
            return
          </CharString>
          <CharString index="183">
            rmoveto
            286 220 174 252 206 -119 134 -268 86 hvcurveto
            -112 35 rlineto
            -175 56 -99 72 138 vvcurveto
            142 103 100 195 174 138 -92 -219 40 vhcurveto
            70 hlineto
            -12 305 rlineto
            169 callsubr
            -73 88 176 -56 199 hhcurveto
            return
          </CharString>
          <CharString index="184">
            132 -422 vlineto
            182 147 rlineto
            158 128 65 84 100 vvcurveto
            123 -94 86 -142 -153 -92 -86 -117 -40 vhcurveto
            48 -22 rlineto
            72 33 62 44 83 hhcurveto
            84 56 -53 -80 -85 -44 -66 -122 -122 hvcurveto
            -187 -183 rlineto
            -102 vlineto
            endchar
          </CharString>
          <CharString index="185">
            187 118 110 132 76 -42 41 -63 -59 -38 -43 -54 -51 39 -43 48 hvcurveto
            -48 -38 -68 -29 -84 hhcurveto
            -84 -68 29 48 -38 hvcurveto
            48 39 43 51 54 -38 43 -59 -63 -42 -41 -76 -132 118 -110 187 hvcurveto
            return
          </CharString>
          <CharString index="186">
            187 118 105 127 73 -41 40 -60 -57 -38 -41 -53 -49 35 -40 46 -2 hvcurveto
            -46 -39 -69 -25 -83 hhcurveto
            -83 -69 25 46 -39 hvcurveto
            44 38 41 50 53 -38 41 -57 -60 -41 -40 -73 -127 119 -105 187 hvcurveto
            return
          </CharString>
          <CharString index="187">
            15 405 rlineto
            -70 hlineto
            -50 -273 -65 -26 -289 -9 -282 4 callgsubr
            66 495 -66 hlineto
            -177 -37 -22 -26 -67 hhcurveto
            -299 572 hlineto
            286 -9 228 -7 76 -44 48 -212 rlinecurve
            70 hlineto
            return
          </CharString>
          <CharString index="188">
            rmoveto
            222 -176 120 -250 23 vhcurveto
            199 26 145 108 177 vvcurveto
            214 -184 135 -333 vhcurveto
            -617 -78 callsubr
            -107 callsubr
            160 callsubr
            endchar
          </CharString>
          <CharString index="189">
            rmoveto
            10 -717 rlineto
            -216 3 104 -90 152 hhcurveto
            98 95 34 54 50 hvcurveto
            75 vlineto
            -24 -32 -52 -15 -63 hhcurveto
            -98 -77 52 154 2 hvcurveto
            11 693 rlineto
            endchar
          </CharString>
          <CharString index="190">
            1652 rmoveto
            -68 -62 -24 -26 -32 hvcurveto
            -70 vlineto
            15 24 48 134 callsubr
            -93 42 -92 vhcurveto
            -475 -515 rmoveto
            -47 callsubr
            return
          </CharString>
          <CharString index="191">
            1165 rmoveto
            150 352 rlineto
            12 -187 vlineto
            -44 -364 rlineto
            -163 49 rmoveto
            -15 callgsubr
            498 hmoveto
            -15 callgsubr
            return
          </CharString>
          <CharString index="192">
            9 77 rmoveto
            88 callsubr
            endchar
          </CharString>
          <CharString index="193">
            1529 rmoveto
            -106 -364 95 0 191 352 rlineto
            12 vlineto
            189 hmoveto
            -180 -364 97 0 273 352 rlineto
            12 vlineto
            return
          </CharString>
          <CharString index="194">
            312 191 -311 -352 -335 -137 -288 -335 -312 -191 311 352 vhcurveto
            return
          </CharString>
          <CharString index="195">
            -99 -56 121 223 219 52 102 95 99 56 -121 -223 -220 -52 -101 -95 hvcurveto
            return
          </CharString>
          <CharString index="196">
            1576 203 1250 rmoveto
            -94 callgsubr
            183 callsubr
            return
          </CharString>
          <CharString index="197">
            74 61 62 75 77 -61 60 -74 -74 -61 -60 -77 -75 61 -62 74 hvcurveto
            return
          </CharString>
          <CharString index="198">
            59 48 43 57 57 -48 43 -59 -59 -48 -43 -57 -57 48 -43 59 hvcurveto
            return
          </CharString>
          <CharString index="199">
            52 41 35 46 45 -41 36 -52 -52 -41 -36 -45 -46 41 -35 52 hvcurveto
            return
          </CharString>
          <CharString index="200">
            508 76 vlineto
            -148 13 -16 12 74 vvcurveto
            365 vlineto
            -57 60 return
          </CharString>
          <CharString index="201">
            rmoveto
            -385 -240 -238 -372 -12 vhcurveto
            -155 -5 return
          </CharString>
          <CharString index="202">
            rmoveto
            132 hlineto
            906 1444 rlineto
            -133 hlineto
            return
          </CharString>
          <CharString index="203">
            1140 872 hmoveto
            114 callsubr
            return
          </CharString>
          <CharString index="204">
            218 317 hvcurveto
            -206 -18 rmoveto
            -256 return
          </CharString>
          <CharString index="205">
            -381 -319 rmoveto
            -47 callsubr
            return
          </CharString>
          <CharString index="206">
            397 1445 126 callsubr
            return
          </CharString>
          <CharString index="207">
            37 -32 48 hvcurveto
            322 hmoveto
            48 36 32 return
          </CharString>
          <CharString index="208">
            -102 callsubr
            626 vlineto
            62 return
          </CharString>
          <CharString index="209">
            212 132 -82 -230 58 hvcurveto
            return
          </CharString>
          <CharString index="210">
            76 vlineto
            -132 13 -15 14 60 vvcurveto
            return
          </CharString>
          <CharString index="211">
            76 vlineto
            -123 13 -15 13 57 vvcurveto
            return
          </CharString>
          <CharString index="212">
            -36 33 -48 hvcurveto
            -9 hlineto
            -47 -37 -33 return
          </CharString>
          <CharString index="213">
            -37 33 -47 hvcurveto
            -9 hlineto
            -48 -37 -33 return
          </CharString>
          <CharString index="214">
            rmoveto
            320 -191 190 -220 return
          </CharString>
          <CharString index="215">
            vlineto
            -87 -19 -17 -147 -14 vhcurveto
            -76 return
          </CharString>
          <CharString index="216">
            vlineto
            -90 -16 -18 -159 -14 vhcurveto
            -76 return
          </CharString>
          <CharString index="217">
            rmoveto
            179 138 98 170 42 hvcurveto
            -169 78 176 -99 182 hhcurveto
            168 131 62 83 68 hvcurveto
            76 vlineto
            -59 -59 -103 -37 -101 hhcurveto
            -236 -159 166 261 -8 hvcurveto
            675 hlineto
            2 22 1 24 22 vvcurveto
            263 -146 162 -265 -136 -117 -55 -100 -78 vhcurveto
            104 -53 -107 51 -154 hhcurveto
            -230 -161 -104 -120 -64 49 -49 65 66 49 50 64 35 -18 32 -27 18 hvcurveto
            22 44 55 12 63 hhcurveto
            150 94 -86 -169 hvcurveto
            -62 vlineto
            -210 -37 rlineto
            -280 -50 -129 -108 -167 vvcurveto
            -160 127 -102 175 vhcurveto
            759 941 rmoveto
            149 76 -103 -197 hvcurveto
            -1 -485 vlineto
            208 19 106 93 135 hhcurveto
            -682 -825 rmoveto
            -114 -70 66 111 106 65 71 222 42 hvcurveto
            137 26 rlineto
            -140 vlineto
            -194 -111 -88 -129 vhcurveto
            endchar
          </CharString>
          <CharString index="218">
            rmoveto
            -1003 hlineto
            -608 -1188 -73 -144 -35 -23 -132 -13 rlinecurve
            -76 479 76 vlineto
            -147 18 -22 37 65 130 rrcurveto
            153 308 483 0 4 -375 1 -87 -17 -17 -151 -14 rlinecurve
            -76 1063 vlineto
            11 405 rlineto
            -70 hlineto
            -46 -273 -65 -24 -288 -11 rrcurveto
            -230 -9 -7 608 rlineto
            248 hlineto
            70 25 -31 -173 32 hvcurveto
            66 hlineto
            -5 495 rlineto
            -66 hlineto
            -177 -34 -22 -26 -68 hhcurveto
            -247 hlineto
            -7 572 234 -9 228 -9 76 -42 51 -212 rlinecurve
            70 hlineto
            -948 272 rmoveto
            83 hlineto
            8 -692 rlineto
            -435 hlineto
            endchar
          </CharString>
          <CharString index="219">
            rmoveto
            88 73 38 49 34 hvcurveto
            -52 14 50 -31 63 hhcurveto
            46 37 14 17 22 hvcurveto
            53 vlineto
            -3 -8 -11 -1 -12 hhcurveto
            -33 -28 17 46 hvcurveto
            241 vlineto
            134 -90 59 -145 -144 -110 -60 -80 -43 33 -30 44 44 33 32 43 20 -8 19 -13 13 vhcurveto
            7 22 25 4 28 hhcurveto
            80 54 -34 -91 hvcurveto
            -34 vlineto
            -132 -28 rlineto
            -166 -36 -64 -58 -86 vvcurveto
            -81 72 -58 102 vhcurveto
            -25 167 rmoveto
            51 39 30 103 21 vhcurveto
            71 14 rlineto
            -150 vlineto
            -28 -23 -42 -18 -49 hhcurveto
            -58 -41 29 51 hvcurveto
            endchar
          </CharString>
          <CharString index="220">
            444 256 vlineto
            353 -638 rlineto
            273 70 hlineto
            -63 15 -49 36 -129 229 rrcurveto
            -189 345 178 45 124 131 -1 181 rlinecurve
            -223 -20 rmoveto
            -197 -127 -99 -252 -7 vhcurveto
            -151 -4 0 631 125 -4 rlineto
            275 -9 130 -111 -200 vvcurveto
            return
          </CharString>
          <CharString index="221">
            268 70 hlineto
            -74 16 -53 39 -78 125 rrcurveto
            -238 379 95 88 185 171 44 23 101 14 rlinecurve
            76 -437 -76 vlineto
            130 -15 17 -25 -92 -97 -182 -192 rcurveline
            -148 890 hlineto
            -49 callsubr
            -102 callsubr
            347 149 vlineto
            return
          </CharString>
          <CharString index="222">
            76 vlineto
            -58 -64 -102 -38 -99 hhcurveto
            -235 -155 167 261 246 142 142 180 69 53 -10 -25 39 hvcurveto
            -40 -15 -28 -41 -48 vvcurveto
            -64 49 -50 65 65 50 50 69 128 -108 110 -233 -272 -240 -198 -332 return
          </CharString>
          <CharString index="223">
            rmoveto
            180 133 120 173 171 -127 116 -177 -179 -133 -120 -173 -170 127 -117 176 hvcurveto
            8 74 rmoveto
            -90 -63 86 137 131 54 78 91 90 64 -86 -137 -131 -53 -78 -93 hvcurveto
            endchar
          </CharString>
          <CharString index="224">
            97 -45 112 hhcurveto
            267 209 97 callsubr
            -130 -156 -181 -110 -84 48 58 -34 -43 callgsubr
          </CharString>
          <CharString index="225">
            1386 460 194 rmoveto
            511 183 vlineto
            453 -705 122 callsubr
            -320 -392 rcurveline
            -181 455 hlineto
            87 19 17 148 14 vhcurveto
            -48 callsubr
            -107 callsubr
            -62 callsubr
            return
          </CharString>
          <CharString index="226">
            rmoveto
            -112 121 -79 150 150 121 79 112 112 -121 78 -150 -150 -121 -78 -112 vhcurveto
            154 hmoveto
            66 51 42 66 66 51 -42 -66 -66 -51 -43 -66 -66 -51 44 65 vhcurveto
            endchar
          </CharString>
          <CharString index="227">
            rmoveto
            -113 109 -80 136 136 109 80 113 113 -109 81 -136 -136 -109 -81 -113 vhcurveto
            139 hmoveto
            69 45 45 60 60 45 -45 -69 -68 -45 -45 -60 -60 -45 45 68 vhcurveto
            return
          </CharString>
          <CharString index="228">
            178 99 128 130 16 -1 16 -3 16 hvcurveto
            -80 -12 hlineto
            -86 -67 -73 -126 -126 -67 73 86 vhcurveto
            12 -80 vlineto
            -3 -16 -1 -16 -16 vvcurveto
            -130 99 -128 178 vhcurveto
            endchar
          </CharString>
          <CharString index="229">
            rlineto
            298 70 hlineto
            -82 21 -54 53 -135 207 rrcurveto
            -322 497 257 290 148 168 48 40 129 22 rlinecurve
            76 -502 -76 vlineto
            169 -12 17 -38 -106 -132 return
          </CharString>
          <CharString index="230">
            1347 1213 1052 rmoveto
            243 -192 149 -371 vhcurveto
            -581 -78 callsubr
            -107 callsubr
            -62 callsubr
            113 callsubr
            return
          </CharString>
          <CharString index="231">
            11 -532 rlineto
            -47 -9 -9 -83 -9 vhcurveto
            -56 349 56 vlineto
            -86 9 -11 9 49 vvcurveto
            -13 535 rlineto
            50 11 9 86 9 vhcurveto
            56 vlineto
            -286 2 -214 return
          </CharString>
          <CharString index="232">
            1288 vlineto
            -345 -42 0 -66 81 -19 rlineto
            57 -14 9 -14 -54 vvcurveto
            -356 vlineto
            58 -60 -96 44 -112 hhcurveto
            -267 -209 -218 -317 hvcurveto
            return
          </CharString>
          <CharString index="233">
            rmoveto
            -70 hlineto
            -222 -105 0 -50 142 32 rlineto
            -526 vlineto
            -53 -21 -15 -112 -11 vhcurveto
            -56 417 56 vlineto
            -113 11 -20 15 53 vvcurveto
            return
          </CharString>
          <CharString index="234">
            rmoveto
            135 43 134 119 180 vvcurveto
            115 -57 84 -96 -93 -49 -79 -96 vhcurveto
            88 -7 60 -52 -76 vvcurveto
            -75 -65 -59 -86 -33 vhcurveto
            return
          </CharString>
          <CharString index="235">
            1789 rmoveto
            547 91 -547 hlineto
            274 -338 rmoveto
            52 41 36 46 45 -41 36 -52 -52 -41 -36 -45 -46 41 -36 52 hvcurveto
            return
          </CharString>
          <CharString index="236">
            rmoveto
            -88 -280 93 0 172 271 rlineto
            9 vlineto
            165 hmoveto
            -161 -280 97 0 252 271 rlineto
            9 vlineto
            return
          </CharString>
          <CharString index="237">
            1220 1118 513 107 callsubr
            159 callsubr
            return
          </CharString>
          <CharString index="238">
            38 77 51 114 hhcurveto
            145 85 -89 callgsubr
            472 104 callsubr
            164 callsubr
            endchar
          </CharString>
          <CharString index="239">
            450 rmoveto
            280 -205 149 -349 vhcurveto
            -211 355 hlineto
            97 21 22 170 15 vhcurveto
            76 return
          </CharString>
          <CharString index="240">
            1498 rmoveto
            534 -90 0 83 -534 146 rlineto
            -446 vmoveto
            534 107 -534 hlineto
            return
          </CharString>
          <CharString index="241">
            15 48 hhcurveto
            59 36 -23 -40 -39 -34 -22 -73 -21 hvcurveto
            67 -53 rlineto
            103 32 69 41 87 vvcurveto
            86 return
          </CharString>
          <CharString index="242">
            rmoveto
            -190 -152 -186 152 -96 0 214 -280 135 0 214 280 rlineto
            return
          </CharString>
          <CharString index="243">
            -304 216 -214 285 hvcurveto
            16 104 rmoveto
            -175 -129 -68 callgsubr
            return
          </CharString>
          <CharString index="244">
            1470 rmoveto
            534 107 -534 hlineto
            267 -419 rmoveto
            50 callsubr
            return
          </CharString>
          <CharString index="245">
            343 298 94 -298 183 vlineto
            -197 -24 rlineto
            -159 -147 vlineto
            endchar
          </CharString>
          <CharString index="246">
            vlineto
            -87 -19 -17 -148 -14 vhcurveto
            -76 537 76 vlineto
            -158 14 -17 18 90 vvcurveto
            return
          </CharString>
          <CharString index="247">
            1145 vlineto
            221 -7 236 -7 82 -44 48 -214 rlinecurve
            70 hlineto
            endchar
          </CharString>
          <CharString index="248">
            121 120 66 121 120 -96 69 -122 3 hvcurveto
            75 111 rlineto
            return
          </CharString>
          <CharString index="249">
            66 1209 rmoveto
            147 -1046 hlineto
            -60 -16 -14 -131 -13 vhcurveto
            -76 return
          </CharString>
          <CharString index="250">
            rmoveto
            74 61 62 75 76 -61 61 -74 -74 -61 -61 -76 -75 61 -62 74 hvcurveto
            return
          </CharString>
          <CharString index="251">
            1498 -87 callgsubr
            -217 vmoveto
            534 107 -534 hlineto
            return
          </CharString>
          <CharString index="252">
            hhcurveto
            -445 -287 -334 -418 hvcurveto
            -104 callsubr
            return
          </CharString>
          <CharString index="253">
            -219 79 -179 121 -128 vhcurveto
            -128 -145 74 -66 126 144 rlineto
            -103 129 162 -56 162 hhcurveto
            446 287 334 418 220 -79 179 -122 128 hvcurveto
            128 145 -73 65 -127 -144 rlineto
            103 -129 -161 56 -163 145 callsubr
            149 121 -70 -112 86 vhcurveto
            -736 -836 rlineto
            -60 112 -32 138 145 vvcurveto
            975 -40 rmoveto
            -335 -137 -288 -335 -148 -121 70 112 -86 vhcurveto
            735 836 rlineto
            60 -112 32 -138 -145 vvcurveto
            endchar
          </CharString>
          <CharString index="254">
            rmoveto
            -289 141 -163 192 163 117 121 156 34 vhcurveto
            28 -152 108 -126 186 1 rrcurveto
            208 1 147 176 320 vvcurveto
            306 -144 242 -156 -79 -52 -64 -100 24 vhcurveto
            168 -45 129 -193 -216 vvcurveto
            -181 -91 -119 -124 -135 -73 134 288 vhcurveto
            171 -193 -172 vlineto
            -311 -84 -110 -118 -121 -68 111 238 245 78 167 115 103 vhcurveto
            -47 50 rlineto
            -217 -105 -136 -227 -257 vvcurveto
            endchar
          </CharString>
          <CharString index="255">
            rmoveto
            154 103 88 198 98 hvcurveto
            -208 48 66 -72 115 hhcurveto
            64 61 27 43 40 hvcurveto
            70 vlineto
            -10 -17 -26 -8 -27 hhcurveto
            -70 -52 67 293 -82 hvcurveto
            236 535 rlineto
            -212 hlineto
            -22 -107 -32 -124 -35 -120 rrcurveto
            241 -59 -89 132 -216 hhcurveto
            -254 -163 -222 -297 -342 166 -184 205 hvcurveto
            -162 535 rmoveto
            230 84 174 139 137 60 -122 -277 50 vhcurveto
            20 -114 rlineto
            -205 -77 -77 -94 -118 hhcurveto
            -139 -79 188 220 hvcurveto
            endchar
          </CharString>
          <CharString index="256">
            rmoveto
            293 222 216 310 141 -47 122 -78 90 hvcurveto
            89 100 -71 63 -87 -98 rlineto
            63 -84 -104 36 -117 hhcurveto
            -293 -222 -216 -310 -142 47 -123 80 -90 hvcurveto
            -85 -96 70 -63 84 95 rlineto
            -63 83 104 -35 116 hhcurveto
            -291 537 rmoveto
            251 107 153 184 87 76 -41 -73 54 vhcurveto
            -466 -526 rlineto
            -27 65 -15 80 91 vvcurveto
            307 -435 rmoveto
            -86 -75 40 72 -55 hvcurveto
            466 525 rlineto
            26 -65 15 -78 -90 vvcurveto
            -251 -108 -153 -183 vhcurveto
            endchar
          </CharString>
          <CharString index="257">
            hmoveto
            590 304 hlineto
            -250 65 -131 194 283 vvcurveto
            322 193 198 285 290 204 -205 -331 -275 -153 -199 -227 -52 vhcurveto
            -304 590 vlineto
            50 351 rlineto
            -61 hlineto
            -172 -66 -148 -44 -275 hhcurveto
            115 vlineto
            299 46 218 220 330 vvcurveto
            371 -311 257 -402 -419 -294 -269 -375 -320 219 -209 299 -51 vhcurveto
            -115 vlineto
            -267 -148 39 177 -76 hvcurveto
            -61 hlineto
            return
          </CharString>
          <CharString index="258">
            rmoveto
            219 152 76 95 73 hvcurveto
            76 vlineto
            -60 -75 -122 -45 -167 hhcurveto
            -171 -100 60 107 106 103 68 213 hvcurveto
            110 hlineto
            -23 145 rlineto
            -38 hlineto
            -263 -103 46 109 98 89 64 164 90 66 -12 -26 49 hvcurveto
            -24 -19 -15 -29 -32 vvcurveto
            -54 43 -55 67 65 50 50 64 121 -133 92 -262 -292 -142 -123 -161 -148 128 -97 192 -8 vhcurveto
            -212 -8 -129 -91 -139 vvcurveto
            -165 151 -105 247 vhcurveto
            endchar
          </CharString>
          <CharString index="259">
            201 -99 167 -168 78 hvcurveto
            -10 41 45 -4 45 hhcurveto
            146 93 68 104 78 -48 86 -65 53 hvcurveto
            -75 hlineto
            18 -28 15 -56 -53 vvcurveto
            -113 -73 -73 -119 vhcurveto
            -94 -63 20 -124 hhcurveto
            -270 -224 -220 -307 -308 197 -210 304 hvcurveto
            16 104 rmoveto
            -175 -129 167 263 261 106 146 182 175 129 -167 -263 -261 -106 -146 -182 hvcurveto
            return
          </CharString>
          <CharString index="260">
            rmoveto
            -77 59 -58 89 144 107 113 233 119 vhcurveto
            463 906 56 110 27 20 137 16 rlinecurve
            76 -478 -76 vlineto
            189 -21 -1 -7 -56 -118 rrcurveto
            -307 -648 -351 648 -62 114 6 11 189 21 rlinecurve
            76 -590 -76 vlineto
            137 -16 22 -20 61 -110 rrcurveto
            474 -852 -63 -133 -54 -90 -60 -48 rlinecurve
            71 -58 61 -70 -70 -59 -55 -71 vhcurveto
            endchar
          </CharString>
          <CharString index="261">
            440 rmoveto
            257 -164 179 -227 -168 -125 -83 -147 -58 vhcurveto
            20 398 210 269 461 81 -4 75 rcurveline
            -556 -36 -329 -389 -467 vvcurveto
            -395 188 -212 286 274 192 209 261 vhcurveto
            -203 -34 rmoveto
            -212 -100 -119 -153 -169 -106 142 216 201 105 111 154 167 102 -137 -202 vhcurveto
            endchar
          </CharString>
          <CharString index="262">
            hmoveto
            200 vlineto
            157 9 124 58 66 78 rrcurveto
            76 vlineto
            -60 -65 -108 -37 -104 hhcurveto
            -24 -24 2 3 -22 hvcurveto
            811 vlineto
            6 6 0 6 hhcurveto
            61 51 -9 -20 39 hvcurveto
            -30 -19 -21 -35 -41 vvcurveto
            -64 49 -50 64 65 50 51 67 138 -136 86 -210 1 vhcurveto
            199 -74 -203 vlineto
            -252 -30 -203 -194 -306 vvcurveto
            return
          </CharString>
          <CharString index="263">
            203 hlineto
            179 -4 573 -1 vvcurveto
            92 38 80 52 106 hhcurveto
            162 71 -78 -266 -313 -7 -426 -10 -272 hvcurveto
            203 1097 hlineto
            299 -154 87 -184 -158 -112 -80 -106 -49 vhcurveto
            120 -10 -78 55 -97 hhcurveto
            -70 -66 -27 -31 -39 hvcurveto
            -75 vlineto
            5 13 19 5 25 hhcurveto
            95 41 -47 -124 -3 hvcurveto
            endchar
          </CharString>
          <CharString index="264">
            rmoveto
            725 vlineto
            294 -4 0 105 -294 -4 rlineto
            164 vlineto
            167 55 68 80 9 8 -1 -1 8 vhcurveto
            -11 -15 -6 -19 -21 vvcurveto
            -56 40 -42 56 53 43 43 55 85 -79 66 -137 -178 -138 -128 -254 vhcurveto
            -107 vlineto
            -147 -52 rlineto
            -53 147 -733 11 callsubr
            -68 callsubr
            endchar
          </CharString>
          <CharString index="265">
            rmoveto
            82 70 28 38 36 hvcurveto
            76 vlineto
            -18 -21 -31 -13 -41 hhcurveto
            -68 -55 62 111 65 18 69 31 55 hvcurveto
            256 34 185 205 283 vvcurveto
            -101 callsubr
            -301 212 -213 281 -4 vhcurveto
            -79 -81 -54 -98 -96 vvcurveto
            -119 93 -74 104 vhcurveto
            -40 572 rmoveto
            -175 -129 -68 callgsubr
            endchar
          </CharString>
          <CharString index="266">
            -146 -134 -69 -101 -54 vhcurveto
            633 vlineto
            -102 callgsubr
            -1277 61 vlineto
            95 116 rlineto
            -75 56 114 -63 135 hhcurveto
            269 212 97 callsubr
            -131 -156 -184 -110 -78 52 54 -36 vhcurveto
            589 vlineto
            77 42 86 43 106 hhcurveto
            184 121 -152 -251 hvcurveto
            return
          </CharString>
          <CharString index="267">
            617 vlineto
            337 262 146 273 hvcurveto
            -306 647 rmoveto
            -160 -112 -107 -221 vhcurveto
            -186 557 hlineto
            155 -5 rlineto
            261 -8 103 -107 -170 vvcurveto
            73 -667 rmoveto
            -209 -172 -89 -265 -8 vhcurveto
            -155 -5 rlineto
            623 186 vlineto
            261 145 -105 -207 hvcurveto
            return
          </CharString>
          <CharString index="268">
            rmoveto
            272 221 212 308 308 -188 217 -297 -282 -221 -212 -308 -307 188 -218 307 hvcurveto
            8 104 rmoveto
            -178 -111 174 262 249 103 152 178 168 112 -173 -263 -249 -103 -152 -169 hvcurveto
            endchar
          </CharString>
          <CharString index="269">
            rmoveto
            309 147 9 callgsubr
            -83 119 rrcurveto
            -234 338 94 96 191 196 36 32 100 14 rlinecurve
            76 -426 -76 vlineto
            133 -16 20 -39 -104 -114 -181 -200 rcurveline
            -148 286 hlineto
            -30 callsubr
            -10 callsubr
            -102 callsubr
            endchar
          </CharString>
          <CharString index="270">
            432 -1177 171 0 433 1171 58 158 24 24 133 15 rlinecurve
            76 -470 -76 vlineto
            163 -20 19 -26 -51 -146 rrcurveto
            -339 -978 -345 979 -51 144 20 27 163 20 rlinecurve
            76 -572 -76 vlineto
            126 -15 30 -24 56 -152 rrcurveto
            return
          </CharString>
          <CharString index="271">
            566 vlineto
            28 -1 27 -4 22 vhcurveto
            54 42 75 42 109 hhcurveto
            150 88 -89 callgsubr
            481 60 callsubr
            530 vlineto
            210 -141 120 -207 -156 -117 -73 -93 -59 vhcurveto
            106 -49 -113 60 -153 hhcurveto
            -151 -113 -72 -91 -58 hvcurveto
            return
          </CharString>
          <CharString index="272">
            -558 -77 vlineto
            148 -14 19 -16 -87 vvcurveto
            -1155 -583 1155 vlineto
            87 19 16 148 14 vhcurveto
            77 -549 -77 vlineto
            147 -14 19 -16 -87 vvcurveto
            -1155 -582 1155 vlineto
            87 19 16 148 14 vhcurveto
            -48 callsubr
            -107 callsubr
            return
          </CharString>
          <CharString index="273">
            763 vlineto
            -2 12 14 -1 14 hhcurveto
            112 69 52 99 hvcurveto
            1 74 -50 88 -67 54 rrcurveto
            -75 hlineto
            18 -28 15 -56 -52 vvcurveto
            -120 -64 -71 -214 -18 vhcurveto
            -132 -11 0 -65 80 -19 rlineto
            60 -14 10 -13 -54 vvcurveto
            -588 vlineto
            -62 -38 -79 -91 callgsubr
            return
          </CharString>
          <CharString index="274">
            308 -764 112 0 308 762 55 135 19 13 100 15 rlinecurve
            76 -396 -76 vlineto
            138 -11 25 -23 -42 -111 rrcurveto
            -211 -558 -211 558 -42 111 26 23 137 11 rlinecurve
            76 -500 -76 vlineto
            100 -20 25 -22 49 -119 rrcurveto
            return
          </CharString>
          <CharString index="275">
            439 vlineto
            330 518 102 159 35 25 118 16 rlinecurve
            76 -459 -76 vlineto
            163 -18 4 -35 -79 -136 rrcurveto
            -261 -447 -274 447 -82 135 7 36 163 18 rlinecurve
            76 -570 -76 vlineto
            121 -16 33 -28 92 -144 rrcurveto
            return
          </CharString>
          <CharString index="276">
            60 -70 -150 55 -180 hhcurveto
            -310 -194 -168 -230 -200 138 -135 246 -77 hvcurveto
            111 -36 rlineto
            189 -60 89 -91 -144 vvcurveto
            -149 -116 -105 -184 -198 -167 104 221 -50 vhcurveto
            -70 hlineto
            12 -305 rlineto
            return
          </CharString>
          <CharString index="277">
            rmoveto
            89 78 71 180 hvcurveto
            -85 hlineto
            -91 -4 -21 -30 -39 hhcurveto
            -27 -24 14 21 -27 hvcurveto
            -29 23 rlineto
            34 -46 -40 27 -58 hhcurveto
            -89 -78 -71 -180 hvcurveto
            85 hlineto
            91 4 21 30 39 hhcurveto
            27 24 -14 -21 27 hvcurveto
            29 -23 rlineto
            -35 46 40 -26 58 hhcurveto
            return
          </CharString>
          <CharString index="278">
            1379 1285 419 rmoveto
            222 -176 120 -250 23 vhcurveto
            199 26 145 108 177 vvcurveto
            214 -184 135 -333 vhcurveto
            -617 -78 callsubr
            -107 callsubr
            160 callsubr
            return
          </CharString>
          <CharString index="279">
            313 -242 rmoveto
            113 70 42 64 64 -70 41 -113 hvcurveto
            -81 hlineto
            -110 -73 -41 -64 -64 73 -42 110 hvcurveto
            76 63 rmoveto
            -71 hlineto
            -40 -23 17 26 25 23 17 40 hvcurveto
            71 hlineto
            42 21 -17 -25 -26 -21 -17 -42 hvcurveto
            return
          </CharString>
          <CharString index="280">
            309 -330 rmoveto
            119 73 56 85 85 -73 56 -119 hvcurveto
            -85 hlineto
            -116 -76 -56 -85 -85 76 -56 116 hvcurveto
            80 84 rmoveto
            -75 hlineto
            -42 -24 24 33 33 24 24 42 hvcurveto
            75 hlineto
            44 22 -24 -33 -33 -22 -24 -44 hvcurveto
            return
          </CharString>
          <CharString index="281">
            rmoveto
            171 -110 130 -341 vhcurveto
            -158 213 hlineto
            74 16 12 147 13 vhcurveto
            76 -507 13 callsubr
            538 vlineto
            232 183 117 195 hvcurveto
            -462 213 rmoveto
            168 -51 callgsubr
          </CharString>
          <CharString index="282">
            1956 rmoveto
            -71 -62 -21 -21 -34 hvcurveto
            -60 vlineto
            12 26 48 14 49 hhcurveto
            60 37 -20 -34 -33 -35 -19 -75 -18 hvcurveto
            69 -45 rlineto
            105 27 72 35 74 vvcurveto
            73 -95 36 -94 vhcurveto
            5 -435 -2 callsubr
            return
          </CharString>
          <CharString index="283">
            -490 rmoveto
            81 76 23 37 35 hvcurveto
            76 vlineto
            -18 -21 -36 -13 -46 hhcurveto
            -58 -55 38 79 84 54 82 158 133 hvcurveto
            -81 -2 rlineto
            -221 -136 -75 -107 -107 vvcurveto
            -106 83 -63 106 vhcurveto
            endchar
          </CharString>
          <CharString index="284">
            76 vlineto
            -59 -63 -104 -37 -101 hhcurveto
            -237 -156 162 257 -10 hvcurveto
            692 hlineto
            2 18 1 26 25 vvcurveto
            267 -149 164 -271 -281 -196 -217 -72 callgsubr
          </CharString>
          <CharString index="285">
            -191 -107 -143 -144 -18 1 -17 3 -17 hvcurveto
            86 12 hlineto
            96 73 80 135 135 73 -80 -96 vhcurveto
            -12 86 vlineto
            3 17 1 17 18 vvcurveto
            144 -107 143 -191 vhcurveto
            return
          </CharString>
          <CharString index="286">
            -170 -96 -127 -126 -16 1 -15 3 -15 hvcurveto
            76 11 hlineto
            86 65 73 121 121 65 -73 -86 vhcurveto
            -11 76 vlineto
            3 15 1 15 16 vvcurveto
            126 -97 127 -169 vhcurveto
            return
          </CharString>
          <CharString index="287">
            477 269 vlineto
            71 26 -29 -174 29 hvcurveto
            66 495 -66 hlineto
            -178 -36 -22 -25 -68 hhcurveto
            -269 579 hlineto
            255 -8 228 -7 76 -43 48 -214 rlinecurve
            70 hlineto
            endchar
          </CharString>
          <CharString index="288">
            191 107 142 144 18 -1 18 -3 17 hvcurveto
            -86 -13 hlineto
            -95 -73 -81 -135 -135 -73 81 95 vhcurveto
            13 -86 vlineto
            -3 -17 -1 -18 -18 vvcurveto
            -144 107 -142 191 vhcurveto
            return
          </CharString>
          <CharString index="289">
            170 96 127 126 16 -1 15 -3 15 hvcurveto
            -76 -11 hlineto
            -86 -65 -73 -121 -121 -65 73 86 vhcurveto
            11 -76 vlineto
            -3 -15 -1 -15 -16 vvcurveto
            -126 97 -127 169 vhcurveto
            return
          </CharString>
          <CharString index="290">
            360 229 217 356 3 vhcurveto
            6 691 1 98 18 21 148 14 rlinecurve
            77 -467 -76 vlineto
            159 -14 15 -21 1 -100 5 -671 rcurveline
            184 callsubr
            return
          </CharString>
          <CharString index="291">
            -298 2 -158 -152 -257 hhcurveto
            -237 -184 149 286 hvcurveto
            699 vlineto
            90 16 18 159 14 vhcurveto
            76 -558 -76 vlineto
            148 -14 19 -17 -87 vvcurveto
            return
          </CharString>
          <CharString index="292">
            rmoveto
            -91 -67 -36 -37 -35 hvcurveto
            -60 vlineto
            20 27 48 18 56 hhcurveto
            64 39 -29 -44 -47 -48 -39 -88 -61 hvcurveto
            81 hlineto
            144 62 51 54 69 vvcurveto
            76 -69 54 -112 vhcurveto
            return
          </CharString>
          <CharString index="293">
            -550 -76 vlineto
            162 -20 11 -24 -42 -147 rrcurveto
            -280 -974 -291 974 -85 callgsubr
            -565 -76 vlineto
            126 -15 36 -22 49 -154 rrcurveto
            return
          </CharString>
          <CharString index="294">
            151 89 67 -24 -37 44 vhcurveto
            -36 -15 -26 -38 -44 vvcurveto
            -65 49 -46 63 62 50 49 66 154 -155 104 -211 -249 -208 -141 -258 return
          </CharString>
          <CharString index="295">
            vlineto
            -90 -84 -64 -107 -102 vvcurveto
            -124 93 -73 115 77 67 27 35 33 vhcurveto
            76 vlineto
            -15 -19 -31 -12 -37 hhcurveto
            -78 -55 75 106 75 25 77 37 46 hvcurveto
            return
          </CharString>
        <CharString name=".notdef">
          2048 127 -494 rmoveto
          0 callgsubr
          156 2444 -156 hlineto
          409 -2444 rmoveto
          0 callgsubr
          0 callgsubr
          155 2444 -155 hlineto
          endchar
        </CharString>
        <CharString name=".null">
          0 endchar
        </CharString>
        <CharString name="A">
          2 callsubr
          -98 callsubr
        </CharString>
        <CharString name="AE">
          1988 1835 1444 111 callsubr
        </CharString>
        <CharString name="AEacute">
          1988 1254 -95 callsubr
          674 -126 111 callsubr
        </CharString>
        <CharString name="AEmacron">
          1988 1009 -45 callsubr
          826 -306 111 callsubr
        </CharString>
        <CharString name="Aacute">
          1448 701 -95 callsubr
          636 -1303 -99 callsubr
          -98 callsubr
        </CharString>
        <CharString name="Abreve">
          1448 721 -18 callsubr
          523 -1334 -99 callsubr
          -98 callsubr
        </CharString>
        <CharString name="Abreveacute">
          1448 995 -14 callsubr
          273 -239 -2 callsubr
          523 -1254 -99 callsubr
          -98 callsubr
        </CharString>
        <CharString name="Abrevecyrillic">
          1448 721 1605 rmoveto
          79 callsubr
          523 -1338 -99 callsubr
          -98 callsubr
        </CharString>
        <CharString name="Abrevedotbelow">
          1448 721 -18 callsubr
          523 -1334 -99 callsubr
          59 callsubr
          -220 -798 -96 callsubr
        </CharString>
        <CharString name="Abrevegrave">
          1448 447 63 callsubr
          274 -434 -2 callsubr
          523 -1254 -99 callsubr
          -98 callsubr
        </CharString>
        <CharString name="Abrevehookabove">
          1448 716 175 callsubr
          523 -1254 -99 callsubr
          -98 callsubr
        </CharString>
        <CharString name="Abrevetilde">
          1448 838 1782 rmoveto
          84 73 47 111 hvcurveto
          -83 hlineto
          -43 -27 -17 -38 -25 -25 6 14 -40 vhcurveto
          -28 9 rlineto
          15 -42 -38 9 -96 callgsubr
          17 38 25 25 -6 -97 callgsubr
          -117 -261 -2 callsubr
          523 -1254 -99 callsubr
          -98 callsubr
        </CharString>
        <CharString name="Acaron">
          1448 920 -75 callsubr
          233 -1582 -99 callsubr
          -98 callsubr
        </CharString>
        <CharString name="Acircumflex">
          1448 541 -74 callsubr
          794 -1303 -99 callsubr
          -98 callsubr
        </CharString>
        <CharString name="Acircumflexacute">
          1448 995 1815 7 callsubr
          -1 -253 rmoveto
          49 callsubr
          796 -1289 -99 callsubr
          -98 callsubr
        </CharString>
        <CharString name="Acircumflexdotbelow">
          1448 541 -74 callsubr
          794 -1303 -99 callsubr
          59 callsubr
          -220 -798 -96 callsubr
        </CharString>
        <CharString name="Acircumflexgrave">
          1448 447 1815 55 callsubr
          -448 vmoveto
          49 callsubr
          796 -1289 -99 callsubr
          -98 callsubr
        </CharString>
        <CharString name="Acircumflexhookabove">
          1448 943 75 callsubr
          796 -1289 -99 callsubr
          -98 callsubr
        </CharString>
        <CharString name="Acircumflextilde">
          1448 838 72 callsubr
          796 -1289 -99 callsubr
          -98 callsubr
        </CharString>
        <CharString name="Acyrillic">
          2 callsubr
          -98 callsubr
        </CharString>
        <CharString name="Adblgrave">
          1448 506 31 callsubr
          308 -1303 -99 callsubr
          -98 callsubr
        </CharString>
        <CharString name="Adieresis">
          1448 549 -66 callsubr
          350 -1341 -99 callsubr
          -98 callsubr
        </CharString>
        <CharString name="Adieresismacron">
          1448 447 56 callsubr
          122 -354 -55 callsubr
          371 -1282 -99 callsubr
          -98 callsubr
        </CharString>
        <CharString name="Adotaccent">
          1448 721 -89 callsubr
          523 -1343 -99 callsubr
          -98 callsubr
        </CharString>
        <CharString name="Adotbelow">
          2 callsubr
          59 callsubr
          -220 -798 -96 callsubr
        </CharString>
        <CharString name="Adotmacron">
          1448 447 128 callsubr
          523 -1275 -99 callsubr
          -98 callsubr
        </CharString>
        <CharString name="Agrave">
          1448 758 -46 callsubr
          782 -1574 -99 callsubr
          -98 callsubr
        </CharString>
        <CharString name="Ahookabove">
          1448 742 -15 callsubr
          502 -1631 -99 callsubr
          -98 callsubr
        </CharString>
        <CharString name="Ainvertedbreve">
          1448 721 29 callsubr
          523 -1633 -99 callsubr
          -98 callsubr
        </CharString>
        <CharString name="Alphagreek">
          2 callsubr
          -98 callsubr
        </CharString>
        <CharString name="Alphatonosgreek">
          2 callsubr
          571 76 vlineto
          -126 15 -29 24 -57 152 rrcurveto
          -972 813 53 callsubr
          259 -486 rmoveto
          226 651 230 -651 rlineto
          endchar
        </CharString>
        <CharString name="Amacron">
          1448 456 -45 callsubr
          788 -1483 -99 callsubr
          -98 callsubr
        </CharString>
        <CharString name="Aogonek">
          2 callsubr
          267 188 callsubr
          231 76 hlineto
          -61 callgsubr
          endchar
        </CharString>
        <CharString name="Aring">
          1448 476 1758 120 callsubr
          629 -1491 -99 callsubr
          -98 callsubr
        </CharString>
        <CharString name="Aringacute">
          1448 995 1820 7 callsubr
          172 callsubr
          488 -1298 -99 callsubr
          -98 callsubr
        </CharString>
        <CharString name="Aringbelow">
          2 callsubr
          59 callsubr
          -491 -898 119 callsubr
        </CharString>
        <CharString name="Atilde">
          1448 838 -43 callsubr
          406 -1318 -99 callsubr
          -98 callsubr
        </CharString>
        <CharString name="B">
          1379 1285 419 81 callsubr
        </CharString>
        <CharString name="Bdotaccent">
          1379 703 -89 callsubr
          582 -1191 81 callsubr
        </CharString>
        <CharString name="Bdotbelow">
          171 callsubr
          -348 -603 -96 callsubr
        </CharString>
        <CharString name="Becyrillic">
          1307 1224 420 rmoveto
          237 -181 169 -387 vhcurveto
          -196 529 hlineto
          239 -7 228 -8 76 -43 49 -213 rlinecurve
          69 hlineto
          -11 360 rlineto
          -1041 -78 callsubr
          -107 callsubr
          587 vlineto
          358 210 173 247 hvcurveto
          -232 -5 rmoveto
          -210 -135 -102 -272 -9 vhcurveto
          -125 -3 0 640 125 -4 rlineto
          269 -9 138 -107 -196 vvcurveto
          endchar
        </CharString>
        <CharString name="Betagreek">
          1379 1285 419 81 callsubr
        </CharString>
        <CharString name="Blinebelow">
          171 callsubr
          -621 -761 -77 callsubr
        </CharString>
        <CharString name="C">
          1449 107 723 -1 callsubr
          -27 callsubr
        </CharString>
        <CharString name="Cacute">
          1449 814 -95 callsubr
          -614 -847 -1 callsubr
          -27 callsubr
        </CharString>
        <CharString name="Ccaron">
          1449 1033 -75 callsubr
          -1017 -1126 -1 callsubr
          -27 callsubr
        </CharString>
        <CharString name="Ccedilla">
          1449 107 723 rmoveto
          -455 327 -278 378 -19 vhcurveto
          -90 -123 -65 callsubr
          21 callsubr
          -23 callsubr
          56 83 rlineto
          179 10 170 57 81 60 12 307 rcurveline
          -90 callgsubr
          -27 callsubr
        </CharString>
        <CharString name="Ccedillaacute">
          1449 814 -95 callsubr
          -614 -847 rmoveto
          -455 327 -278 378 -19 vhcurveto
          -90 -123 -65 callsubr
          21 callsubr
          -23 callsubr
          56 83 rlineto
          179 10 170 57 81 60 12 307 rcurveline
          -90 callgsubr
          -27 callsubr
        </CharString>
        <CharString name="Ccircumflex">
          1449 654 -74 callsubr
          -456 -847 -1 callsubr
          -27 callsubr
        </CharString>
        <CharString name="Cdotaccent">
          1449 834 -89 callsubr
          -727 -887 -1 callsubr
          -27 callsubr
        </CharString>
        <CharString name="Checyrillic">
          1588 1344 -40 callsubr
          -557 -76 vlineto
          151 -14 15 -17 -87 vvcurveto
          -536 vlineto
          -30 -90 -116 -15 -120 hhcurveto
          -258 -109 126 258 hvcurveto
          197 vlineto
          87 15 17 152 14 vhcurveto
          76 -549 -76 vlineto
          151 -14 15 -17 -87 vvcurveto
          -198 vlineto
          -332 202 -158 341 132 138 26 33 96 vhcurveto
          -410 vlineto
          -97 -21 -23 -170 -15 vhcurveto
          -76 582 76 vlineto
          -159 14 -16 18 90 vvcurveto
          endchar
        </CharString>
        <CharString name="Chigreek">
          1395 277 273 35 callsubr
        </CharString>
        <CharString name="D">
          1559 27 callsubr
          endchar
        </CharString>
        <CharString name="Dbar">
          1559 69 693 rmoveto
          175 -495 hlineto
          -90 -16 -18 -159 -14 vhcurveto
          -76 598 vlineto
          422 376 285 459 441 -348 259 -452 hvcurveto
          -596 -78 callsubr
          -459 -175 vlineto
          1158 -59 94 callsubr
          rlineto
          605 335 94 -335 569 vlineto
          1 callgsubr
          endchar
        </CharString>
        <CharString name="Dcaron">
          1559 940 -75 callsubr
          434 -1105 74 callsubr
          endchar
        </CharString>
        <CharString name="Dcircumflexbelow">
          1559 27 callsubr
          -679 -1196 -64 callsubr
        </CharString>
        <CharString name="Dcommaaccent">
          1559 27 callsubr
          -498 -1218 -73 callsubr
        </CharString>
        <CharString name="Ddotaccent">
          1559 741 -89 callsubr
          724 -866 74 callsubr
          endchar
        </CharString>
        <CharString name="Ddotbelow">
          1559 27 callsubr
          -486 -932 -96 callsubr
        </CharString>
        <CharString name="Decyrillic">
          1537 1462 95 rmoveto
          -200 1139 hlineto
          97 21 22 169 15 vhcurveto
          76 -1261 -76 vlineto
          172 -19 25 -13 -6 -138 rrcurveto
          -14 -372 -15 -358 -48 -228 -114 -145 rlinecurve
          -154 hlineto
          -8 -394 rlineto
          87 hlineto
          268 59 107 31 251 hhcurveto
          441 hlineto
          265 90 -53 -246 54 hvcurveto
          87 hlineto
          -424 394 rmoveto
          -708 hlineto
          90 143 48 210 14 378 20 523 rcurveline
          536 hlineto
          endchar
        </CharString>
        <CharString name="Deltagreek">
          1331 47 hmoveto
          1237 108 hlineto
          -534 1336 -169 0 -534 -1334 rlineto
          142 44 rmoveto
          423 1107 423 -1107 rlineto
          endchar
        </CharString>
        <CharString name="Djecyrillic">
          1716 -33 callsubr
          -71 callgsubr
          456 vlineto
          35 63 96 23 102 hhcurveto
          228 140 -132 -281 -276 -115 -210 -187 -141 hvcurveto
          39 -61 rlineto
          295 158 184 250 310 vvcurveto
          324 -199 175 -304 -145 -123 -39 -40 -74 vhcurveto
          605 -9 callgsubr
        </CharString>
        <CharString name="Dlinebelow">
          1559 27 callsubr
          -759 -1090 -77 callsubr
        </CharString>
        <CharString name="Dzecyrillic">
          1188 579 -30 76 callsubr
          endchar
        </CharString>
        <CharString name="Dzhecyrillic">
          1652 1408 1246 rmoveto
          90 17 18 158 14 vhcurveto
          76 -557 -76 67 callsubr
          -1155 -732 1155 -11 callsubr
          76 -558 -76 vlineto
          159 -14 16 -18 -90 vvcurveto
          -107 callsubr
          566 vlineto
          87 21 -17 -282 40 hvcurveto
          87 hlineto
          282 40 20 17 87 hhcurveto
          566 76 hlineto
          -158 14 -17 18 90 vvcurveto
          endchar
        </CharString>
        <CharString name="E">
          1299 1156 1444 -88 callsubr
        </CharString>
        <CharString name="Eacute">
          1299 635 -95 callsubr
          614 -126 -88 callsubr
        </CharString>
        <CharString name="Ebreve">
          1299 655 -18 callsubr
          501 -157 -88 callsubr
        </CharString>
        <CharString name="Ecaron">
          1299 854 -75 callsubr
          211 -405 -88 callsubr
        </CharString>
        <CharString name="Ecedilla">
          1299 641 64 callsubr
          75 111 462 0 80 callsubr
          -12 360 rlineto
          -34 callsubr
          573 vlineto
          -112 -152 -65 callsubr
          21 callsubr
          endchar
        </CharString>
        <CharString name="Ecedillabreve">
          1299 655 -18 callsubr
          -14 -2091 rmoveto
          -23 callsubr
          75 111 462 0 80 callsubr
          -12 360 rlineto
          -34 callsubr
          573 vlineto
          -112 -152 -65 callsubr
          21 callsubr
          endchar
        </CharString>
        <CharString name="Ecircumflex">
          1299 475 -74 callsubr
          772 -126 -88 callsubr
        </CharString>
        <CharString name="Ecircumflexacute">
          1299 929 1815 7 callsubr
          -1 -253 rmoveto
          49 callsubr
          774 -112 -88 callsubr
        </CharString>
        <CharString name="Ecircumflexbelow">
          1299 1156 1444 rmoveto
          -34 callsubr
          30 callsubr
          -689 -1552 -64 callsubr
        </CharString>
        <CharString name="Ecircumflexdotbelow">
          1299 475 -74 callsubr
          772 -126 rmoveto
          -34 callsubr
          30 callsubr
          -496 -1288 -96 callsubr
        </CharString>
        <CharString name="Ecircumflexgrave">
          1299 381 1815 55 callsubr
          -448 vmoveto
          49 callsubr
          774 -112 -88 callsubr
        </CharString>
        <CharString name="Ecircumflexhookabove">
          1299 877 75 callsubr
          774 -112 -88 callsubr
        </CharString>
        <CharString name="Ecircumflextilde">
          1299 772 72 callsubr
          774 -112 -88 callsubr
        </CharString>
        <CharString name="Ecyrillic">
          1479 107 723 -1 callsubr
          -291 -214 247 365 -20 hvcurveto
          709 -5 0 105 -710 -5 rlineto
          344 12 190 235 324 hhcurveto
          102 callsubr
          69 hlineto
          -11 -52 callgsubr
        </CharString>
        <CharString name="Edblgrave">
          1299 440 31 callsubr
          286 -126 -88 callsubr
        </CharString>
        <CharString name="Edieresis">
          1299 483 -66 callsubr
          328 -164 -88 callsubr
        </CharString>
        <CharString name="Edotaccent">
          1299 655 -89 callsubr
          501 -166 -88 callsubr
        </CharString>
        <CharString name="Edotbelow">
          1299 1156 1444 rmoveto
          -34 callsubr
          30 callsubr
          -496 -1288 -96 callsubr
        </CharString>
        <CharString name="Efcyrillic">
          1837 79 718 rmoveto
          -309 309 -184 427 -12 vhcurveto
          -33 vlineto
          -97 -21 -22 -169 -15 vhcurveto
          -76 587 76 vlineto
          -169 15 -21 22 97 vvcurveto
          33 vlineto
          427 12 309 184 310 vvcurveto
          298 -257 202 -479 12 vhcurveto
          33 -42 callgsubr
          -33 vlineto
          -479 -12 -257 -202 -299 vvcurveto
          1447 8 rmoveto
          -217 -161 -181 -343 -15 vhcurveto
          818 vlineto
          365 -14 139 -179 -212 vvcurveto
          -1215 hmoveto
          212 140 179 364 14 vhcurveto
          -818 vlineto
          -345 15 -159 182 216 vvcurveto
          endchar
        </CharString>
        <CharString name="Egrave">
          1299 692 -46 callsubr
          760 -397 -88 callsubr
        </CharString>
        <CharString name="Ehookabove">
          1299 676 -15 callsubr
          480 -454 -88 callsubr
        </CharString>
        <CharString name="Einvertedbreve">
          1299 655 29 callsubr
          501 -456 -88 callsubr
        </CharString>
        <CharString name="Elcyrillic">
          1520 -45 callgsubr
          525 -1151 hlineto
          -90 -20 -18 -155 -14 vhcurveto
          -76 566 76 vlineto
          -155 14 -20 18 90 vvcurveto
          1048 vlineto
          90 20 18 155 14 vhcurveto
          76 -1235 -81 callgsubr
          endchar
        </CharString>
        <CharString name="Emacron">
          1299 390 -45 callsubr
          766 -306 -88 callsubr
        </CharString>
        <CharString name="Emacronacute">
          1299 929 -14 callsubr
          -86 callgsubr
          775 -226 -88 callsubr
        </CharString>
        <CharString name="Emacrongrave">
          1299 381 -103 callgsubr
          775 -226 -88 callsubr
        </CharString>
        <CharString name="Emcyrillic">
          1883 486 1444 37 callsubr
        </CharString>
        <CharString name="Encyrillic">
          4 callsubr
          -61 callsubr
          -53 callsubr
          -39 callsubr
        </CharString>
        <CharString name="Eogonek">
          1299 1039 -490 rmoveto
          78 66 27 35 33 hvcurveto
          76 vlineto
          -15 -18 -32 -12 -36 hhcurveto
          -79 -54 75 106 75 24 77 38 46 hvcurveto
          142 hlineto
          80 callsubr
          -12 360 rlineto
          -34 callsubr
          916 vlineto
          -89 -84 -64 -107 -102 vvcurveto
          -124 92 -73 115 vhcurveto
          endchar
        </CharString>
        <CharString name="Epsilongreek">
          1299 1156 1444 -88 callsubr
        </CharString>
        <CharString name="Epsilontonosgreek">
          1586 1443 1444 rmoveto
          -34 callsubr
          30 callsubr
          -1369 -4 53 callsubr
          endchar
        </CharString>
        <CharString name="Ercyrillic">
          1320 1225 1015 39 callsubr
        </CharString>
        <CharString name="Ereversedcyrillic">
          1483 136 99 rmoveto
          -66 92 206 -63 195 hhcurveto
          399 348 275 496 470 -316 263 -431 -215 -181 -51 -64 -89 hvcurveto
          -12 -305 rlineto
          70 hlineto
          231 58 144 80 210 hhcurveto
          307 195 -227 -351 21 hvcurveto
          -707 4 0 -105 709 4 rlineto
          -371 -12 -223 -240 -290 hhcurveto
          -210 -151 71 253 -58 hvcurveto
          -70 hlineto
          endchar
        </CharString>
        <CharString name="Escyrillic">
          1449 107 723 -1 callsubr
          -27 callsubr
        </CharString>
        <CharString name="Etagreek">
          4 callsubr
          -61 callsubr
          -53 callsubr
          -39 callsubr
        </CharString>
        <CharString name="Etatonosgreek">
          1950 747 194 18 callsubr
          -61 callsubr
          -53 callsubr
          -62 callsubr
          -661 886 53 callsubr
          endchar
        </CharString>
        <CharString name="Etilde">
          1299 772 -43 callsubr
          384 -141 -88 callsubr
        </CharString>
        <CharString name="Etildebelow">
          1299 1156 1444 rmoveto
          -34 callsubr
          30 callsubr
          -383 -1508 -7 callsubr
        </CharString>
        <CharString name="F">
          1193 1126 1444 rmoveto
          -1057 -78 callsubr
          -107 callsubr
          -20 callsubr
          180 callsubr
        </CharString>
        <CharString name="Fdotaccent">
          1193 655 -89 callsubr
          471 -166 rmoveto
          -1057 -78 callsubr
          -107 callsubr
          -20 callsubr
          180 callsubr
        </CharString>
        <CharString name="G">
          1566 107 723 -8 callsubr
        </CharString>
        <CharString name="Gacute">
          1566 806 -95 callsubr
          -606 -847 -8 callsubr
        </CharString>
        <CharString name="Gammagreek">
          1180 1106 1444 rmoveto
          -1037 -78 callsubr
          -107 callsubr
          -20 callsubr
          140 callsubr
        </CharString>
        <CharString name="Gbreve">
          1566 826 -18 callsubr
          -719 -878 -8 callsubr
        </CharString>
        <CharString name="Gcaron">
          1566 1025 -75 callsubr
          -1009 -1126 -8 callsubr
        </CharString>
        <CharString name="Gcircumflex">
          1566 646 -74 callsubr
          -448 -847 -8 callsubr
        </CharString>
        <CharString name="Gcommaaccent">
          1566 107 723 rmoveto
          -471 351 -282 396 202 196 56 77 112 vhcurveto
          387 vlineto
          90 15 13 163 15 vhcurveto
          75 -577 -75 vlineto
          183 -16 14 -12 -89 vvcurveto
          -342 vlineto
          -46 -67 -98 -24 -121 hhcurveto
          -307 -221 274 396 364 190 252 337 102 callsubr
          70 hlineto
          -12 306 rlineto
          64 -88 -172 51 -221 hhcurveto
          -422 -325 -281 -470 hvcurveto
          734 -1213 -73 callsubr
        </CharString>
        <CharString name="Gdotaccent">
          1566 826 -89 callsubr
          -719 -887 -8 callsubr
        </CharString>
        <CharString name="Geacutecyrillic">
          1180 603 -95 callsubr
          596 -126 rmoveto
          -1037 -78 callsubr
          -107 callsubr
          -20 callsubr
          140 callsubr
        </CharString>
        <CharString name="Gecyrillic">
          1180 1106 1444 rmoveto
          -1037 -78 callsubr
          -107 callsubr
          -20 callsubr
          140 callsubr
        </CharString>
        <CharString name="Germandbls">
          1459 460 hmoveto
          1356 vlineto
          218 -8 rlineto
          291 -11 128 -115 -159 vvcurveto
          -135 -87 -92 -161 -25 vhcurveto
          -126 vlineto
          194 -50 128 -120 -189 vvcurveto
          -167 -94 -84 -122 -136 -99 101 178 -32 vhcurveto
          -70 -294 hlineto
          -45 59 128 -45 148 hhcurveto
          196 216 126 268 222 -122 158 -191 68 hvcurveto
          135 22 118 105 151 vvcurveto
          215 -170 139 -393 vhcurveto
          -673 -78 callsubr
          -107 callsubr
          vlineto
          endchar
        </CharString>
        <CharString name="Geupturncyrillic">
          1150 1079 1349 rmoveto
          8 394 rlineto
          -87 hlineto
          -282 -79 -32 -17 -161 hhcurveto
          -659 -78 callsubr
          -107 callsubr
          -20 callsubr
          1138 vlineto
          endchar
        </CharString>
        <CharString name="Gmacron">
          1566 561 -45 callsubr
          -454 -1027 -8 callsubr
        </CharString>
        <CharString name="H">
          4 callsubr
          -61 callsubr
          -53 callsubr
          -39 callsubr
        </CharString>
        <CharString name="Hacyrillic">
          1395 277 273 35 callsubr
        </CharString>
        <CharString name="Hardsigncyrillic">
          1561 1468 132 callsubr
          -827 vlineto
          33 callsubr
          223 65 36 259 8 rrcurveto
          -1141 vlineto
          -97 -21 -22 -169 -15 vhcurveto
          -76 633 vlineto
          362 176 219 231 hvcurveto
          -233 -12 -12 callgsubr
          139 vlineto
          247 146 -119 -227 hvcurveto
          endchar
        </CharString>
        <CharString name="Hbar">
          4 callsubr
          842 175 93 -175 113 -41 callgsubr
          -117 -742 116 -11 callsubr
          -48 callsubr
          -113 -175 -93 175 -842 109 callsubr
          -62 callsubr
          592 vmoveto
          254 742 -254 vlineto
          endchar
        </CharString>
        <CharString name="Hbrevebelow">
          4 callsubr
          -61 callsubr
          -53 callsubr
          -62 callsubr
          374 -651 rmoveto
          121 callsubr
        </CharString>
        <CharString name="Hcaron">
          1662 1033 -75 callsubr
          -664 -1655 18 callsubr
          -61 callsubr
          -53 callsubr
          -39 callsubr
        </CharString>
        <CharString name="Hcedilla">
          4 callsubr
          -61 callsubr
          -53 callsubr
          247 vlineto
          -113 -152 -65 callsubr
          -44 callgsubr
          141 callsubr
          214 76 hlineto
          -148 14 -19 17 87 vvcurveto
          endchar
        </CharString>
        <CharString name="Hcircumflex">
          1662 654 -74 callsubr
          -103 -1376 18 callsubr
          -61 callsubr
          -53 callsubr
          -39 callsubr
        </CharString>
        <CharString name="Hdieresis">
          1662 662 -66 callsubr
          -547 -1414 18 callsubr
          -61 callsubr
          -53 callsubr
          -39 callsubr
        </CharString>
        <CharString name="Hdotaccent">
          1662 834 -89 callsubr
          -374 -1416 18 callsubr
          -61 callsubr
          -53 callsubr
          -39 callsubr
        </CharString>
        <CharString name="Hdotbelow">
          4 callsubr
          -61 callsubr
          -53 callsubr
          -62 callsubr
          374 -398 -96 callsubr
        </CharString>
        <CharString name="I">
          704 460 -40 callsubr
          -93 callsubr
          -107 callsubr
          -76 callsubr
        </CharString>
        <CharString name="IAcyrillic">
          1390 159 1028 rmoveto
          -207 147 -120 173 -36 vhcurveto
          -202 -315 -138 -215 -29 -39 -77 -26 rlinecurve
          -70 250 vlineto
          395 633 rlineto
          233 -439 hlineto
          -39 callgsubr
          1048 vlineto
          90 20 18 155 14 vhcurveto
          76 -628 vlineto
          -332 -183 -163 -253 hvcurveto
          224 20 rmoveto
          195 120 101 246 7 vhcurveto
          162 5 0 -636 -149 1 rlineto
          -226 1 -153 118 208 vvcurveto
          endchar
        </CharString>
        <CharString name="IJ">
          1408 460 -40 callsubr
          -93 callsubr
          -107 callsubr
          6 callsubr
          704 55 -26 callsubr
        </CharString>
        <CharString name="IJacute">
          1408 332 -95 callsubr
          796 hmoveto
          -2 callgsubr
          -482 -1372 -79 callsubr
          -93 callsubr
          -107 callsubr
          6 callsubr
          704 55 -26 callsubr
        </CharString>
        <CharString name="IUcyrillic">
          2288 460 194 rmoveto
          497 276 vlineto
          -458 15 349 -263 354 hhcurveto
          442 284 327 425 1 hvcurveto
          477 1 -358 275 -362 hhcurveto
          -420 -278 -295 -393 -27 hvcurveto
          -277 463 hlineto
          87 19 17 148 14 vhcurveto
          -48 callsubr
          -107 callsubr
          -62 callsubr
          1014 -115 rmoveto
          -310 -190 303 360 343 137 280 332 309 192 -303 -360 -1 hvcurveto
          -343 -1 -137 -280 -331 hhcurveto
          endchar
        </CharString>
        <CharString name="Iacute">
          704 332 -95 callsubr
          221 -1372 -79 callsubr
          -93 callsubr
          -107 callsubr
          -76 callsubr
        </CharString>
        <CharString name="Ibreve">
          704 352 -18 callsubr
          108 -1403 -79 callsubr
          -93 callsubr
          -107 callsubr
          -76 callsubr
        </CharString>
        <CharString name="Icaron">
          704 551 -75 callsubr
          -182 -1651 -79 callsubr
          -93 callsubr
          -107 callsubr
          -76 callsubr
        </CharString>
        <CharString name="Icircumflex">
          704 172 -74 callsubr
          379 -1372 -79 callsubr
          -93 callsubr
          -107 callsubr
          -76 callsubr
        </CharString>
        <CharString name="Icyrillic">
          704 460 -40 callsubr
          -93 callsubr
          -107 callsubr
          -76 callsubr
        </CharString>
        <CharString name="Idblgrave">
          704 137 31 callsubr
          -107 -1372 -79 callsubr
          -93 callsubr
          -107 callsubr
          -76 callsubr
        </CharString>
        <CharString name="Idieresis">
          704 180 -66 callsubr
          -65 -1410 -79 callsubr
          -93 callsubr
          -107 callsubr
          -76 callsubr
        </CharString>
        <CharString name="Idieresisacute">
          704 626 -14 callsubr
          121 -211 -55 callsubr
          -44 -1351 -79 callsubr
          -93 callsubr
          -107 callsubr
          -76 callsubr
        </CharString>
        <CharString name="Idotaccent">
          704 352 -89 callsubr
          108 -1412 -79 callsubr
          -93 callsubr
          -107 callsubr
          -76 callsubr
        </CharString>
        <CharString name="Idotbelow">
          704 460 -40 callsubr
          -93 callsubr
          -107 callsubr
          6 callsubr
          -110 -402 -96 callsubr
        </CharString>
        <CharString name="Iecyrillic">
          1299 1156 1444 -88 callsubr
        </CharString>
        <CharString name="Igrave">
          704 389 -46 callsubr
          367 -1643 -79 callsubr
          -93 callsubr
          -107 callsubr
          -76 callsubr
        </CharString>
        <CharString name="Ihookabove">
          704 373 -15 callsubr
          87 -1700 -79 callsubr
          -93 callsubr
          -107 callsubr
          -76 callsubr
        </CharString>
        <CharString name="Iicyrillic">
          1687 460 194 rmoveto
          34 vlineto
          767 845 rlineto
          -879 vlineto
          -39 callgsubr
          -61 callsubr
          -34 vlineto
          -767 -845 rlineto
          878 -11 callsubr
          -48 callsubr
          -107 callsubr
          -39 callsubr
        </CharString>
        <CharString name="Iinvertedbreve">
          704 352 29 callsubr
          108 -1702 -79 callsubr
          -93 callsubr
          -107 callsubr
          -76 callsubr
        </CharString>
        <CharString name="Iishortcyrillic">
          1687 845 1605 rmoveto
          79 callsubr
          -385 -1411 rmoveto
          34 vlineto
          767 845 rlineto
          -879 vlineto
          -39 callgsubr
          -61 callsubr
          -34 vlineto
          -767 -845 rlineto
          878 -11 callsubr
          -48 callsubr
          -107 callsubr
          -39 callsubr
        </CharString>
        <CharString name="Imacron">
          704 87 -45 callsubr
          373 -1552 -79 callsubr
          -93 callsubr
          -107 callsubr
          -76 callsubr
        </CharString>
        <CharString name="Iocyrillic">
          1299 483 -66 callsubr
          328 -164 -88 callsubr
        </CharString>
        <CharString name="Iogonek">
          704 460 -40 callsubr
          -93 callsubr
          -107 callsubr
          261 188 callsubr
          232 76 hlineto
          -159 14 -16 18 90 vvcurveto
          endchar
        </CharString>
        <CharString name="Iotadieresisgreek">
          704 180 -66 callsubr
          -65 -1410 -79 callsubr
          -93 callsubr
          -107 callsubr
          -76 callsubr
        </CharString>
        <CharString name="Iotagreek">
          704 460 -40 callsubr
          -93 callsubr
          -107 callsubr
          -76 callsubr
        </CharString>
        <CharString name="Iotatonosgreek">
          991 747 -40 callsubr
          -93 callsubr
          -107 callsubr
          6 callsubr
          -661 882 53 callsubr
          endchar
        </CharString>
        <CharString name="Itilde">
          704 469 -43 callsubr
          -9 -1387 -79 callsubr
          -93 callsubr
          -107 callsubr
          -76 callsubr
        </CharString>
        <CharString name="Itildebelow">
          704 460 -40 callsubr
          -93 callsubr
          -107 callsubr
          6 callsubr
          3 -622 -7 callsubr
        </CharString>
        <CharString name="J">
          704 460 253 -26 callsubr
        </CharString>
        <CharString name="Jacute">
          704 331 -95 callsubr
          222 -1317 -26 callsubr
        </CharString>
        <CharString name="Jcircumflex">
          704 171 -74 callsubr
          380 -1317 -26 callsubr
        </CharString>
        <CharString name="Jecyrillic">
          704 460 253 -26 callsubr
        </CharString>
        <CharString name="K">
          1386 460 194 16 callsubr
        </CharString>
        <CharString name="Kaacutecyrillic">
          1386 730 -95 callsubr
          -177 -1376 16 callsubr
        </CharString>
        <CharString name="Kacute">
          1386 730 -95 callsubr
          -177 -1376 16 callsubr
        </CharString>
        <CharString name="Kacyrillic">
          1386 460 194 16 callsubr
        </CharString>
        <CharString name="Kappagreek">
          1386 460 194 16 callsubr
        </CharString>
        <CharString name="Kcaron">
          1386 949 -75 callsubr
          -580 -1655 16 callsubr
        </CharString>
        <CharString name="Kcommaaccent">
          118 callsubr
          321 -684 -73 callsubr
        </CharString>
        <CharString name="Kdotbelow">
          118 callsubr
          333 -398 -96 callsubr
        </CharString>
        <CharString name="Klinebelow">
          118 callsubr
          60 -556 -77 callsubr
        </CharString>
        <CharString name="L">
          24 callsubr
          endchar
        </CharString>
        <CharString name="Lacute">
          1195 336 -95 callsubr
          881 -1570 rmoveto
          0 callsubr
          22 callsubr
          endchar
        </CharString>
        <CharString name="Lambdagreek">
          1427 1214 270 rmoveto
          -413 1174 -171 0 -428 -1208 -44 -124 -39 -24 -117 -12 rlinecurve
          -76 469 76 vlineto
          -170 18 -4 40 38 118 rrcurveto
          326 991 337 -1006 43 -130 -55 -13 -130 -18 rlinecurve
          -76 571 76 vlineto
          -119 14 -38 22 -56 158 rrcurveto
          endchar
        </CharString>
        <CharString name="Lcaron">
          1195 930 1109 5 callsubr
          266 -1109 rmoveto
          0 callsubr
          22 callsubr
          endchar
        </CharString>
        <CharString name="Lcircumflexbelow">
          24 callsubr
          336 -468 -64 callsubr
        </CharString>
        <CharString name="Lcommaaccent">
          24 callsubr
          518 -490 -73 callsubr
        </CharString>
        <CharString name="Ldot">
          24 callsubr
          869 724 rmoveto
          -21 callgsubr
          endchar
        </CharString>
        <CharString name="Ldotbelow">
          24 callsubr
          529 -204 -96 callsubr
        </CharString>
        <CharString name="Ldotbelowmacron">
          1195 91 -45 callsubr
          1033 -1750 rmoveto
          0 callsubr
          22 callsubr
          529 -204 -96 callsubr
        </CharString>
        <CharString name="Ljecyrillic">
          2059 -45 callgsubr
          450 -1151 hlineto
          -90 -20 -18 -155 -14 vhcurveto
          -76 618 vlineto
          362 176 219 231 280 -205 149 -349 hvcurveto
          -211 355 hlineto
          97 21 22 170 15 vhcurveto
          76 -1176 -81 callgsubr
          1719 331 -12 callgsubr
          140 vlineto
          247 145 -119 -227 hvcurveto
          endchar
        </CharString>
        <CharString name="Llinebelow">
          24 callsubr
          256 -362 -77 callsubr
        </CharString>
        <CharString name="Lslash">
          1195 69 599 rmoveto
          175 56 rlineto
          -457 109 callsubr
          1055 vlineto
          0 callsubr
          rrcurveto
          -236 -8 0 636 370 118 0 100 -370 -118 rlineto
          411 10 callgsubr
          -490 vlineto
          -175 -56 rlineto
          endchar
        </CharString>
        <CharString name="M">
          1883 486 1444 37 callsubr
        </CharString>
        <CharString name="Macute">
          1883 919 -95 callsubr
          -340 -126 37 callsubr
        </CharString>
        <CharString name="Mdotaccent">
          1883 939 -89 callsubr
          -453 -166 37 callsubr
        </CharString>
        <CharString name="Mdotbelow">
          1883 486 1444 rmoveto
          -415 -76 hlineto
          148 -16 22 -22 -3 -106 rrcurveto
          -25 -1011 -3 -101 -15 -19 -148 -17 rlinecurve
          -76 458 76 vlineto
          -152 17 -16 20 105 vvcurveto
          3 1022 497 -1240 108 0 74 194 405 1046 22 -1046 2 -87 -17 -17 -151 -14 rlinecurve
          -76 556 76 vlineto
          -155 14 -18 18 -2 -58 callgsubr
          -67 -452 -96 callsubr
        </CharString>
        <CharString name="Mugreek">
          1883 486 1444 37 callsubr
        </CharString>
        <CharString name="N">
          1580 -19 callsubr
          3 callsubr
          endchar
        </CharString>
        <CharString name="Nacute">
          1580 778 -95 callsubr
          -267 -126 -5 callsubr
          3 callsubr
          endchar
        </CharString>
        <CharString name="Ncaron">
          1580 997 -75 callsubr
          -670 -405 -5 callsubr
          3 callsubr
          endchar
        </CharString>
        <CharString name="Ncircumflexbelow">
          1580 -19 callsubr
          3 callsubr
          -668 -680 -64 callsubr
        </CharString>
        <CharString name="Ncommaaccent">
          1580 -19 callsubr
          3 callsubr
          -487 -702 -73 callsubr
        </CharString>
        <CharString name="Ndotaccent">
          1580 798 -89 callsubr
          -380 -166 -5 callsubr
          3 callsubr
          endchar
        </CharString>
        <CharString name="Ndotbelow">
          1580 -19 callsubr
          3 callsubr
          -475 -416 -96 callsubr
        </CharString>
        <CharString name="Ngrave">
          1580 835 -46 callsubr
          -121 -397 -5 callsubr
          3 callsubr
          endchar
        </CharString>
        <CharString name="Njecyrillic">
          2147 460 194 rmoveto
          537 613 -537 108 callsubr
          609 vlineto
          362 176 206 218 262 -204 140 -350 hvcurveto
          -211 408 hlineto
          97 21 22 170 15 vhcurveto
          76 -573 -77 67 callsubr
          -423 -613 423 -11 callsubr
          -48 callsubr
          -107 callsubr
          -62 callsubr
          1361 218 rmoveto
          -197 -123 -112 -254 -8 vhcurveto
          -155 -4 rlineto
          640 140 vlineto
          247 145 -110 -209 hvcurveto
          endchar
        </CharString>
        <CharString name="Nlinebelow">
          1580 -19 callsubr
          3 callsubr
          -748 -574 -77 callsubr
        </CharString>
        <CharString name="Ntilde">
          1580 915 -43 callsubr
          -497 -141 -5 callsubr
          3 callsubr
          endchar
        </CharString>
        <CharString name="Nugreek">
          1580 -19 callsubr
          3 callsubr
          endchar
        </CharString>
        <CharString name="O">
          1671 107 722 -105 callsubr
          -103 callsubr
          -104 callsubr
          -100 callsubr
        </CharString>
        <CharString name="OE">
          2103 107 711 rmoveto
          -394 292 -347 445 vhcurveto
          166 83 30 155 hhcurveto
          757 hlineto
          16 405 rlineto
          -70 hlineto
          -50 -273 -65 -26 -288 -9 -281 4 callgsubr
          65 495 -65 hlineto
          -177 -37 -22 -26 -67 hhcurveto
          -299 572 hlineto
          285 -9 228 -7 76 -44 48 -212 rlinecurve
          70 hlineto
          -11 360 rlineto
          -715 hlineto
          -163 -63 30 -161 hhcurveto
          -454 -300 -328 -435 hvcurveto
          240 15 rmoveto
          355 193 288 338 66 60 -9 -21 47 vhcurveto
          -1236 vlineto
          -19 -51 -66 -9 -65 hhcurveto
          -332 -190 289 362 hvcurveto
          endchar
        </CharString>
        <CharString name="Oacute">
          1671 806 -95 callsubr
          -606 -848 -105 callsubr
          -103 callsubr
          -104 callsubr
          -100 callsubr
        </CharString>
        <CharString name="Obreve">
          1671 826 -18 callsubr
          -719 -879 -105 callsubr
          -103 callsubr
          -104 callsubr
          -100 callsubr
        </CharString>
        <CharString name="Ocaron">
          1671 1025 -75 callsubr
          -1009 -1127 -105 callsubr
          -103 callsubr
          -104 callsubr
          -100 callsubr
        </CharString>
        <CharString name="Ocircumflex">
          1671 646 -74 callsubr
          -448 -848 -105 callsubr
          -103 callsubr
          -104 callsubr
          -100 callsubr
        </CharString>
        <CharString name="Ocircumflexacute">
          1671 1100 1815 7 callsubr
          -1 -253 rmoveto
          49 callsubr
          -446 -834 -105 callsubr
          -103 callsubr
          -104 callsubr
          -100 callsubr
        </CharString>
        <CharString name="Ocircumflexdotbelow">
          1671 646 -74 callsubr
          -448 -848 -105 callsubr
          -103 callsubr
          -104 callsubr
          87 callsubr
          495 -946 -96 callsubr
        </CharString>
        <CharString name="Ocircumflexgrave">
          1671 552 1815 55 callsubr
          -448 vmoveto
          49 callsubr
          -446 -834 -105 callsubr
          -103 callsubr
          -104 callsubr
          -100 callsubr
        </CharString>
        <CharString name="Ocircumflexhookabove">
          1671 1048 75 callsubr
          -446 -834 -105 callsubr
          -103 callsubr
          -104 callsubr
          -100 callsubr
        </CharString>
        <CharString name="Ocircumflextilde">
          1671 943 72 callsubr
          -446 -834 -105 callsubr
          -103 callsubr
          -104 callsubr
          -100 callsubr
        </CharString>
        <CharString name="Ocyrillic">
          1671 107 722 -105 callsubr
          -103 callsubr
          -104 callsubr
          -100 callsubr
        </CharString>
        <CharString name="Odblgrave">
          1671 611 31 callsubr
          -934 -848 -105 callsubr
          -103 callsubr
          -104 callsubr
          -100 callsubr
        </CharString>
        <CharString name="Odieresis">
          1671 654 -66 callsubr
          -892 -886 -105 callsubr
          -103 callsubr
          -104 callsubr
          -100 callsubr
        </CharString>
        <CharString name="Odieresismacron">
          1671 552 56 callsubr
          122 -354 -55 callsubr
          -871 -827 -105 callsubr
          -103 callsubr
          -104 callsubr
          -100 callsubr
        </CharString>
        <CharString name="Odotaccent">
          1671 826 -89 callsubr
          -719 -888 -105 callsubr
          -103 callsubr
          -104 callsubr
          -100 callsubr
        </CharString>
        <CharString name="Odotaccentmacron">
          1671 552 128 callsubr
          -719 -820 -105 callsubr
          -103 callsubr
          -104 callsubr
          -100 callsubr
        </CharString>
        <CharString name="Odotbelow">
          1671 107 722 -105 callsubr
          -103 callsubr
          -104 callsubr
          87 callsubr
          495 -946 -96 callsubr
        </CharString>
        <CharString name="Ograve">
          1671 863 -46 callsubr
          -460 -1119 -105 callsubr
          -103 callsubr
          -104 callsubr
          -100 callsubr
        </CharString>
        <CharString name="Ohookabove">
          1671 847 -15 callsubr
          -740 -1176 -105 callsubr
          -103 callsubr
          -104 callsubr
          -100 callsubr
        </CharString>
        <CharString name="Ohorn">
          1675 107 722 -105 callsubr
          40 callsubr
        </CharString>
        <CharString name="Ohornacute">
          1675 809 -95 callsubr
          -609 -848 -105 callsubr
          40 callsubr
        </CharString>
        <CharString name="Ohorndotbelow">
          1675 107 722 -105 callsubr
          303 -150 232 -222 126 vhcurveto
          -3 18 18 -2 19 hhcurveto
          177 123 55 133 85 -51 82 -65 55 hvcurveto
          -75 hlineto
          18 -28 15 -60 -49 vvcurveto
          -124 -67 -77 -141 vhcurveto
          -97 -106 24 -140 145 callsubr
          87 callsubr
          486 -946 -96 callsubr
        </CharString>
        <CharString name="Ohorngrave">
          1675 866 -46 callsubr
          -463 -1119 -105 callsubr
          40 callsubr
        </CharString>
        <CharString name="Ohornhookabove">
          1675 850 -15 callsubr
          -743 -1176 -105 callsubr
          40 callsubr
        </CharString>
        <CharString name="Ohorntilde">
          1675 946 -43 callsubr
          -839 -863 -105 callsubr
          40 callsubr
        </CharString>
        <CharString name="Ohungarumlaut">
          1671 721 1850 129 callsubr
          -1144 -1128 -105 callsubr
          -103 callsubr
          -104 callsubr
          -100 callsubr
        </CharString>
        <CharString name="Oinvertedbreve">
          1671 826 29 callsubr
          -719 -1178 -105 callsubr
          -103 callsubr
          -104 callsubr
          -100 callsubr
        </CharString>
        <CharString name="Omacron">
          1671 561 -45 callsubr
          -454 -1028 -105 callsubr
          -103 callsubr
          -104 callsubr
          -100 callsubr
        </CharString>
        <CharString name="Omacronacute">
          1671 1100 -14 callsubr
          -86 callgsubr
          -445 -948 -105 callsubr
          -103 callsubr
          -104 callsubr
          -100 callsubr
        </CharString>
        <CharString name="Omacrongrave">
          1671 552 -103 callgsubr
          -445 -948 -105 callsubr
          -103 callsubr
          -104 callsubr
          -100 callsubr
        </CharString>
        <CharString name="Omegagreek">
          1550 80 150 callsubr
          endchar
        </CharString>
        <CharString name="Omegatonosgreek">
          1696 226 150 callsubr
          -88 729 53 callsubr
          endchar
        </CharString>
        <CharString name="Omicrongreek">
          1671 107 722 -105 callsubr
          -103 callsubr
          -104 callsubr
          -100 callsubr
        </CharString>
        <CharString name="Omicrontonosgreek">
          1751 187 722 -105 callsubr
          -103 callsubr
          -101 358 53 callsubr
          428 -338 rmoveto
          335 138 288 334 -100 callsubr
        </CharString>
        <CharString name="Oogonek">
          -30 callgsubr
          -95 callgsubr
          77 66 27 35 34 vhcurveto
          76 vlineto
          -15 -19 -32 -12 -36 hhcurveto
          -79 -54 72 103 65 20 65 31 46 hvcurveto
          415 25 264 324 401 vvcurveto
          -103 callsubr
          -104 callsubr
          313 190 -56 callgsubr
        </CharString>
        <CharString name="Oogonekmacron">
          1671 561 -45 callsubr
          -454 -1028 rmoveto
          -458 342 -281 357 -13 vhcurveto
          -95 callgsubr
          77 66 27 35 34 vhcurveto
          76 vlineto
          -15 -19 -32 -12 -36 hhcurveto
          -79 -54 72 103 65 20 65 31 46 hvcurveto
          415 25 264 324 401 vvcurveto
          -103 callsubr
          -104 callsubr
          313 190 -56 callgsubr
        </CharString>
        <CharString name="Oslash">
          1671 107 722 rmoveto
          146 callsubr
        </CharString>
        <CharString name="Oslashacute">
          1671 806 -95 callsubr
          -606 -848 rmoveto
          146 callsubr
        </CharString>
        <CharString name="Otilde">
          1671 943 -43 callsubr
          -836 -863 -105 callsubr
          -103 callsubr
          -104 callsubr
          -100 callsubr
        </CharString>
        <CharString name="Otildeacute">
          1671 1100 -14 callsubr
          390 -212 -22 callsubr
          -6 callsubr
          -836 -826 -105 callsubr
          -103 callsubr
          -104 callsubr
          -100 callsubr
        </CharString>
        <CharString name="Otildedieresis">
          1671 674 -80 callgsubr
          -35 -236 -22 callsubr
          -6 callsubr
          -836 -826 -105 callsubr
          -103 callsubr
          -104 callsubr
          -100 callsubr
        </CharString>
        <CharString name="Otildemacron">
          1671 552 56 callsubr
          391 -355 -22 callsubr
          -6 callsubr
          -836 -826 -105 callsubr
          -103 callsubr
          -104 callsubr
          -100 callsubr
        </CharString>
        <CharString name="P">
          1320 1225 1015 39 callsubr
        </CharString>
        <CharString name="Pacute">
          1320 602 -95 callsubr
          716 -555 39 callsubr
        </CharString>
        <CharString name="Pdotaccent">
          1320 622 -89 callsubr
          603 -595 39 callsubr
        </CharString>
        <CharString name="Pecyrillic">
          1652 1408 -1 callgsubr
          -1514 -76 vlineto
          159 -14 16 -18 -90 vvcurveto
          -107 callsubr
          -62 callsubr
          1155 732 -1155 108 callsubr
          557 76 vlineto
          -158 14 -17 18 90 vvcurveto
          endchar
        </CharString>
        <CharString name="Phigreek">
          1791 96 719 rmoveto
          -318 266 -174 430 -13 vhcurveto
          -3 -16 callsubr
          587 9 callsubr
          3 vlineto
          407 15 289 184 313 vvcurveto
          319 -268 172 -428 13 vhcurveto
          4 -42 callgsubr
          -4 vlineto
          -406 -15 -290 -180 -316 vvcurveto
          1376 hmoveto
          -237 -175 -153 -298 -16 vhcurveto
          821 vlineto
          305 -16 168 -151 -248 vvcurveto
          -1153 8 rmoveto
          236 175 154 298 16 vhcurveto
          -821 vlineto
          -304 16 -169 151 248 vvcurveto
          endchar
        </CharString>
        <CharString name="Pigreek">
          1622 1378 -1 callgsubr
          -1484 -76 vlineto
          159 -14 16 -18 -90 vvcurveto
          -107 callsubr
          -62 callsubr
          1155 702 -1155 108 callsubr
          557 76 vlineto
          -158 14 -17 18 90 vvcurveto
          endchar
        </CharString>
        <CharString name="Psigreek">
          1717 961 211 rmoveto
          293 vlineto
          305 14 176 130 46 322 rrcurveto
          34 230 18 124 33 29 95 3 rlinecurve
          76 vlineto
          4 -24 -48 8 -53 hhcurveto
          -129 -68 -52 -187 -29 hvcurveto
          -37 -243 -36 -229 -86 -114 -197 -19 rlinecurve
          649 -11 callsubr
          77 -539 -77 67 callsubr
          -649 vlineto
          -197 19 -86 114 -35 229 -38 243 rcurveline
          187 -28 -69 52 -128 hhcurveto
          -54 -48 -8 -4 -24 hvcurveto
          -76 vlineto
          96 -3 32 -29 18 -124 rrcurveto
          34 -230 47 -321 176 -131 304 -14 rlinecurve
          -293 -16 callsubr
          587 76 vlineto
          -169 15 -22 23 97 vvcurveto
          endchar
        </CharString>
        <CharString name="Q">
          -30 callgsubr
          115 -101 rlineto
          -211 243 93 -28 115 hhcurveto
          83 84 23 30 59 hvcurveto
          67 vlineto
          -124 -12 -115 47 -201 158 -81 64 rcurveline
          303 99 185 281 335 vvcurveto
          469 -359 283 -366 -446 -287 -334 -418 vhcurveto
          -104 callsubr
          311 193 -311 -352 -1 vhcurveto
          -335 -1 -137 -288 -334 hhcurveto
          -312 -191 311 352 hvcurveto
          endchar
        </CharString>
        <CharString name="R">
          1347 1213 1052 19 callsubr
        </CharString>
        <CharString name="Racute">
          1347 624 -95 callsubr
          682 -518 19 callsubr
        </CharString>
        <CharString name="Rcaron">
          1347 843 -75 callsubr
          279 -797 19 callsubr
        </CharString>
        <CharString name="Rcommaaccent">
          123 callsubr
          -253 -1522 -73 callsubr
        </CharString>
        <CharString name="Rdblgrave">
          1347 429 31 callsubr
          354 -518 19 callsubr
        </CharString>
        <CharString name="Rdotaccent">
          1347 644 -89 callsubr
          569 -558 19 callsubr
        </CharString>
        <CharString name="Rdotbelow">
          123 callsubr
          -241 -1236 -96 callsubr
        </CharString>
        <CharString name="Rdotbelowmacron">
          1347 379 -45 callsubr
          834 -698 rmoveto
          243 -192 149 -371 vhcurveto
          -581 -78 callsubr
          -107 callsubr
          -62 callsubr
          113 callsubr
          -241 -1236 -96 callsubr
        </CharString>
        <CharString name="Rhogreek">
          1320 1225 1015 39 callsubr
        </CharString>
        <CharString name="Rinvertedbreve">
          1347 644 29 callsubr
          569 -848 19 callsubr
        </CharString>
        <CharString name="Rlinebelow">
          123 callsubr
          -514 -1394 -77 callsubr
        </CharString>
        <CharString name="S">
          1188 579 -30 76 callsubr
          endchar
        </CharString>
        <CharString name="Sacute">
          1188 602 -95 callsubr
          70 -1600 76 callsubr
          endchar
        </CharString>
        <CharString name="Sacutedotaccent">
          1188 622 1750 rmoveto
          92 callsubr
          -8 callgsubr
          230 -1564 76 callsubr
          endchar
        </CharString>
        <CharString name="Scaron">
          1188 821 -75 callsubr
          -333 -1879 76 callsubr
          endchar
        </CharString>
        <CharString name="Scarondotaccent">
          1188 622 1770 rmoveto
          92 callsubr
          -59 callgsubr
          -324 -1705 76 callsubr
          endchar
        </CharString>
        <CharString name="Scedilla">
          1188 546 64 callsubr
          56 83 rlineto
          263 17 197 169 238 vvcurveto
          206 -119 134 -268 86 vhcurveto
          -112 35 rlineto
          -175 56 -99 72 138 vvcurveto
          142 103 100 195 174 138 -92 -219 40 vhcurveto
          70 hlineto
          -12 305 rlineto
          169 callsubr
          80 -66 153 -53 177 -9 -91 -123 rcurveline
          -84 callgsubr
          21 callsubr
          endchar
        </CharString>
        <CharString name="Schwa">
          1492 693 -30 rmoveto
          401 292 283 466 486 -290 269 -415 -220 -189 -47 -68 -97 hvcurveto
          -12 -306 rlineto
          70 hlineto
          220 51 147 92 221 hhcurveto
          326 173 -236 -409 hvcurveto
          -13 0 -12 -12 vvcurveto
          -1059 hlineto
          -6 -34 -4 -36 -36 vvcurveto
          -347 193 -260 418 vhcurveto
          -393 608 rmoveto
          5 0 5 5 vvcurveto
          845 hlineto
          -31 -323 -153 -190 -260 -1 rrcurveto
          -288 -113 207 292 hvcurveto
          endchar
        </CharString>
        <CharString name="Scircumflex">
          1188 442 -74 callsubr
          228 -1600 76 callsubr
          endchar
        </CharString>
        <CharString name="Scommaaccent">
          1188 579 -30 76 callsubr
          -13 -460 -73 callsubr
        </CharString>
        <CharString name="Sdotaccent">
          1188 622 -89 callsubr
          -43 -1640 76 callsubr
          endchar
        </CharString>
        <CharString name="Sdotbelow">
          1188 579 -30 76 callsubr
          -2 -174 -96 callsubr
        </CharString>
        <CharString name="Sdotbelowdotaccent">
          1188 622 -89 callsubr
          -43 -1640 76 callsubr
          -2 -174 -96 callsubr
        </CharString>
        <CharString name="Shacyrillic">
          2301 2057 -40 callsubr
          165 callsubr
          2163 76 vlineto
          -159 14 -16 18 90 vvcurveto
          endchar
        </CharString>
        <CharString name="Shchacyrillic">
          2332 2257 95 rmoveto
          -200 1151 hlineto
          90 16 18 159 14 vhcurveto
          76 165 callsubr
          1836 vlineto
          161 33 -17 -282 79 hvcurveto
          87 hlineto
          endchar
        </CharString>
        <CharString name="Sigmagreek">
          1291 1134 1444 rmoveto
          -1062 -70 hlineto
          479 -659 -479 -607 rlineto
          -108 1095 vlineto
          16 437 rlineto
          -72 hlineto
          -253 -46 -70 -30 -288 hhcurveto
          -482 hlineto
          513 606 0 34 -400 564 399 -12 228 -7 62 -55 48 -200 rlinecurve
          70 hlineto
          endchar
        </CharString>
        <CharString name="Softsigncyrillic">
          1318 1225 132 callsubr
          -93 callgsubr
          -29 callgsubr
          -233 -12 -73 callgsubr
        </CharString>
        <CharString name="T">
          1379 -33 callsubr
          -57 callsubr
          -44 callsubr
          -42 callsubr
          -38 callsubr
          1 callsubr
          endchar
        </CharString>
        <CharString name="Taugreek">
          1379 -33 callsubr
          -57 callsubr
          -44 callsubr
          -42 callsubr
          -38 callsubr
          1 callsubr
          endchar
        </CharString>
        <CharString name="Tbar">
          1379 292 693 rmoveto
          289 -483 hlineto
          -97 -21 -22 -169 -15 vhcurveto
          -76 -42 callsubr
          22 97 vvcurveto
          483 290 94 -290 569 1 callsubr
          -12 360 -1245 0 33 callsubr
          -57 callsubr
          62 2 rcurveline
          -569 -289 vlineto
          endchar
        </CharString>
        <CharString name="Tcaron">
          1379 888 -75 callsubr
          333 -405 -83 callgsubr
          -57 callsubr
          -44 callsubr
          -42 callsubr
          -38 callsubr
          1 callsubr
          endchar
        </CharString>
        <CharString name="Tcedilla">
          1379 659 -490 rmoveto
          141 callsubr
          231 76 hlineto
          -170 15 -21 -38 callsubr
          1 callsubr
          -12 360 -1245 0 33 callsubr
          -57 callsubr
          -44 callsubr
          269 vlineto
          -113 -152 -65 callsubr
          -44 callgsubr
          endchar
        </CharString>
        <CharString name="Tcircumflexbelow">
          1379 -33 callsubr
          -57 callsubr
          -44 callsubr
          -42 callsubr
          -38 callsubr
          1 callsubr
          -828 -1552 -64 callsubr
        </CharString>
        <CharString name="Tcommaaccent">
          1379 -33 callsubr
          -57 callsubr
          -44 callsubr
          -42 callsubr
          -38 callsubr
          1 callsubr
          -646 -1574 -73 callsubr
        </CharString>
        <CharString name="Tdotaccent">
          1379 689 -89 callsubr
          623 -166 -83 callgsubr
          -57 callsubr
          -44 callsubr
          -42 callsubr
          -38 callsubr
          1 callsubr
          endchar
        </CharString>
        <CharString name="Tdotbelow">
          1379 -33 callsubr
          -57 callsubr
          -44 callsubr
          -42 callsubr
          -38 callsubr
          1 callsubr
          -635 -1288 -96 callsubr
        </CharString>
        <CharString name="Tecyrillic">
          1379 -33 callsubr
          -57 callsubr
          -44 callsubr
          -42 callsubr
          -38 callsubr
          1 callsubr
          endchar
        </CharString>
        <CharString name="Thetagreek">
          1672 832 -30 rmoveto
          446 288 334 418 469 -360 283 -366 -446 -288 -334 -418 -469 360 -283 366 hvcurveto
          20 107 rmoveto
          -317 -193 311 354 337 139 288 340 316 194 -311 -354 -337 -140 -288 -339 hvcurveto
          -334 390 rmoveto
          64 hlineto
          161 27 37 36 111 hhcurveto
          151 hlineto
          110 38 -36 -161 26 hvcurveto
          65 486 -65 hlineto
          -161 -26 -38 -37 -110 hhcurveto
          -151 hlineto
          -111 -37 37 161 -27 hvcurveto
          -64 hlineto
          endchar
        </CharString>
        <CharString name="Thorn">
          1299 1217 738 rmoveto
          268 -242 123 -346 vhcurveto
          -169 105 hlineto
          97 21 22 170 15 vhcurveto
          76 -582 -76 vlineto
          159 -14 16 -18 -88 vvcurveto
          -1052 vlineto
          -88 -16 -18 -159 -14 vhcurveto
          -76 -20 callsubr
          118 169 vlineto
          342 246 136 273 hvcurveto
          -232 -16 rmoveto
          -204 -150 -90 -277 -8 vhcurveto
          -98 -3 0 623 98 -3 rlineto
          274 -7 153 -102 -206 vvcurveto
          endchar
        </CharString>
        <CharString name="Tlinebelow">
          1379 -33 callsubr
          -57 callsubr
          -44 callsubr
          -42 callsubr
          -38 callsubr
          1 callsubr
          -908 -1446 -77 callsubr
        </CharString>
        <CharString name="Tsecyrillic">
          1684 1608 95 rmoveto
          -200 1151 hlineto
          90 17 18 158 14 vhcurveto
          76 -557 -77 67 callsubr
          -1154 -732 1154 -11 callsubr
          -48 callsubr
          -107 callsubr
          1188 vlineto
          161 33 -17 -282 78 hvcurveto
          87 hlineto
          endchar
        </CharString>
        <CharString name="Tshecyrillic">
          1839 -33 callsubr
          -71 callgsubr
          448 vlineto
          43 71 108 23 122 hhcurveto
          218 110 -116 -236 hvcurveto
          -360 383 76 vlineto
          -148 14 -19 17 87 vvcurveto
          182 vlineto
          332 -196 120 -286 -149 -135 -37 -50 -79 vhcurveto
          613 -9 callgsubr
        </CharString>
        <CharString name="U">
          1576 203 1250 -81 callsubr
        </CharString>
        <CharString name="Uacute">
          1576 815 -95 callsubr
          -519 -320 -81 callsubr
        </CharString>
        <CharString name="Ubreve">
          1576 835 -18 callsubr
          -632 -351 -81 callsubr
        </CharString>
        <CharString name="Ubrevecyrillic">
          1451 780 1605 rmoveto
          79 callsubr
          -520 -1500 153 callsubr
        </CharString>
        <CharString name="Ucaron">
          1576 1034 -75 callsubr
          -922 -599 -81 callsubr
        </CharString>
        <CharString name="Ucircumflex">
          1576 655 -74 callsubr
          -361 -320 -81 callsubr
        </CharString>
        <CharString name="Ucircumflexbelow">
          89 callsubr
          418 -1718 -64 callsubr
        </CharString>
        <CharString name="Ucyrillic">
          1451 260 105 153 callsubr
        </CharString>
        <CharString name="Udblgrave">
          1576 620 31 callsubr
          -847 -320 -81 callsubr
        </CharString>
        <CharString name="Udieresis">
          1576 663 -66 callsubr
          -805 -358 -81 callsubr
        </CharString>
        <CharString name="Udieresisacute">
          1576 1109 -14 callsubr
          121 -211 -55 callsubr
          -784 -299 -81 callsubr
        </CharString>
        <CharString name="Udieresisbelow">
          89 callsubr
          398 -1655 rmoveto
          91 callsubr
          426 hmoveto
          91 callsubr
          endchar
        </CharString>
        <CharString name="Udieresiscaron">
          1576 1109 1959 rmoveto
          -274 -93 -274 93 0 -69 249 -134 51 0 247 134 rlineto
          -425 -341 -55 callsubr
          -784 -299 -81 callsubr
        </CharString>
        <CharString name="Udieresisgrave">
          1576 561 63 callsubr
          122 -406 -55 callsubr
          -784 -299 -81 callsubr
        </CharString>
        <CharString name="Udieresismacron">
          1576 561 56 callsubr
          122 -354 -55 callsubr
          -784 -299 -81 callsubr
        </CharString>
        <CharString name="Udotbelow">
          89 callsubr
          611 -1454 -96 callsubr
        </CharString>
        <CharString name="Ugrave">
          1576 872 -46 callsubr
          -373 -591 -81 callsubr
        </CharString>
        <CharString name="Uhookabove">
          1576 856 -15 callsubr
          -653 -648 -81 callsubr
        </CharString>
        <CharString name="Uhorn">
          1657 202 523 36 callsubr
        </CharString>
        <CharString name="Uhornacute">
          1657 838 -95 callsubr
          -543 -1047 36 callsubr
        </CharString>
        <CharString name="Uhorndotbelow">
          1657 202 523 rmoveto
          -374 283 -179 290 358 230 217 356 4 vhcurveto
          9 848 rlineto
          9 10 -1 10 hhcurveto
          153 69 68 108 81 -46 87 -61 54 hvcurveto
          -76 hlineto
          19 -28 15 -56 -53 vvcurveto
          -118 -1 -73 -89 -192 hhcurveto
          -145 -76 hlineto
          165 -20 15 -20 -96 vvcurveto
          5 -672 rlineto
          -296 2 -157 -152 -257 hhcurveto
          -238 -184 149 286 hvcurveto
          -55 callgsubr
          632 -1436 -96 callsubr
        </CharString>
        <CharString name="Uhorngrave">
          1657 895 -46 callsubr
          -397 -1318 36 callsubr
        </CharString>
        <CharString name="Uhornhookabove">
          1657 879 -15 callsubr
          -677 -1375 36 callsubr
        </CharString>
        <CharString name="Uhorntilde">
          1657 975 -43 callsubr
          -773 -1062 36 callsubr
        </CharString>
        <CharString name="Uhungarumlaut">
          1576 730 1850 129 callsubr
          -1057 -600 -81 callsubr
        </CharString>
        <CharString name="Uinvertedbreve">
          1576 835 29 callsubr
          -632 -650 -81 callsubr
        </CharString>
        <CharString name="Umacron">
          1576 570 -45 callsubr
          -367 -500 -81 callsubr
        </CharString>
        <CharString name="Umacrondieresis">
          1576 683 1784 rmoveto
          47 37 32 41 42 106 callsubr
          -42 -41 100 callsubr
          41 42 105 callsubr
          -14 callgsubr
          -378 -420 -81 callsubr
        </CharString>
        <CharString name="Uogonek">
          1576 848 -490 rmoveto
          77 67 27 35 33 hvcurveto
          76 vlineto
          -15 -19 -31 -12 -37 hhcurveto
          -78 -55 72 103 66 20 67 32 45 hvcurveto
          313 31 194 210 3 328 6 691 rcurveline
          98 19 21 148 14 vhcurveto
          77 -467 -76 vlineto
          159 -14 16 -21 -100 vvcurveto
          5 -671 rlineto
          184 callsubr
          -94 callgsubr
          vhcurveto
          1 hlineto
          -95 callgsubr
          vhcurveto
          endchar
        </CharString>
        <CharString name="Upsilondieresisgreek">
          1372 569 -66 callsubr
          -676 -428 -54 callsubr
        </CharString>
        <CharString name="Upsilongreek">
          1372 238 1180 -54 callsubr
        </CharString>
        <CharString name="Upsilontonosgreek">
          1703 569 -77 callgsubr
          -483 -100 53 callsubr
          endchar
        </CharString>
        <CharString name="Uring">
          1576 590 1758 120 callsubr
          -526 -508 -81 callsubr
        </CharString>
        <CharString name="Utilde">
          1576 952 -43 callsubr
          -749 -335 -81 callsubr
        </CharString>
        <CharString name="Utildeacute">
          1576 1109 -14 callsubr
          390 -212 -22 callsubr
          -6 callsubr
          -749 -298 -81 callsubr
        </CharString>
        <CharString name="Utildebelow">
          89 callsubr
          724 -1674 -7 callsubr
        </CharString>
        <CharString name="V">
          -4 callgsubr
          endchar
        </CharString>
        <CharString name="Vdotbelow">
          -4 callgsubr
          521 -1381 -96 callsubr
        </CharString>
        <CharString name="Vecyrillic">
          1379 1285 419 81 callsubr
        </CharString>
        <CharString name="Vtilde">
          1447 896 -43 callsubr
          -692 -408 rmoveto
          163 callsubr
          endchar
        </CharString>
        <CharString name="W">
          2187 203 1177 14 callsubr
        </CharString>
        <CharString name="Wacute">
          2187 1127 -95 callsubr
          -831 -393 14 callsubr
        </CharString>
        <CharString name="Wcircumflex">
          2187 967 -74 callsubr
          -673 -393 14 callsubr
        </CharString>
        <CharString name="Wdieresis">
          2187 975 -66 callsubr
          -1117 -431 14 callsubr
        </CharString>
        <CharString name="Wdotaccent">
          2187 1147 -89 callsubr
          -944 -433 14 callsubr
        </CharString>
        <CharString name="Wdotbelow">
          2187 203 1177 rmoveto
          376 -1177 170 0 349 1119 336 -1119 171 0 375 1172 51 159 30 22 134 15 rlinecurve
          76 -470 -76 vlineto
          162 -20 12 -24 -43 -147 rrcurveto
          -284 -973 -287 973 -85 callgsubr
          186 callsubr
          891 -1381 -96 callsubr
        </CharString>
        <CharString name="Wgrave">
          2187 1184 -46 callsubr
          -685 -664 14 callsubr
        </CharString>
        <CharString name="X">
          1395 277 273 35 callsubr
        </CharString>
        <CharString name="Xdieresis">
          1395 585 -66 callsubr
          -653 -1335 35 callsubr
        </CharString>
        <CharString name="Xdotaccent">
          1395 757 -89 callsubr
          -480 -1337 35 callsubr
        </CharString>
        <CharString name="Xigreek">
          1359 1262 1444 rmoveto
          -1165 hlineto
          -12 -385 rlineto
          69 hlineto
          188 44 81 43 227 hhcurveto
          347 hlineto
          228 81 -43 -188 43 hvcurveto
          70 hlineto
          -733 -374 rmoveto
          275 hlineto
          113 38 -37 -154 27 hvcurveto
          65 475 -65 hlineto
          -154 -27 -38 -37 -113 hhcurveto
          -275 -54 callgsubr
          719 -685 rmoveto
          17 429 rlineto
          -70 hlineto
          -247 -45 -71 -28 -288 hhcurveto
          -249 12 callgsubr
          rlineto
          endchar
        </CharString>
        <CharString name="Xigreek.1">
          1363 544 685 rmoveto
          93 -531 -80 12 callgsubr
          1163 0 16 429 rlineto
          -69 hlineto
          -247 -45 -71 -28 -288 hhcurveto
          -81 531 94 hlineto
          113 37 -37 -154 27 hvcurveto
          66 475 -66 hlineto
          -154 -27 -37 -37 -113 hhcurveto
          -94 512 130 hlineto
          228 80 -43 -188 44 hvcurveto
          70 hlineto
          -13 385 -1165 0 -13 -385 rlineto
          70 hlineto
          188 44 81 43 227 hhcurveto
          129 -512 -93 -54 callgsubr
          endchar
        </CharString>
        <CharString name="Y">
          1372 238 1180 -54 callsubr
        </CharString>
        <CharString name="Yacute">
          1372 721 -95 callsubr
          -390 -390 -54 callsubr
        </CharString>
        <CharString name="Ycircumflex">
          1372 561 -74 callsubr
          -232 -390 -54 callsubr
        </CharString>
        <CharString name="Ydieresis">
          1372 569 -66 callsubr
          -676 -428 -54 callsubr
        </CharString>
        <CharString name="Ydotaccent">
          1372 741 -89 callsubr
          -503 -430 -54 callsubr
        </CharString>
        <CharString name="Ydotbelow">
          1372 238 -77 callgsubr
          454 -1384 -96 callsubr
        </CharString>
        <CharString name="Yericyrillic">
          1922 1225 132 callsubr
          -93 callgsubr
          -29 callgsubr
          453 -252 -79 callsubr
          -93 callsubr
          -107 callsubr
          6 callsubr
          -686 240 -73 callgsubr
        </CharString>
        <CharString name="Ygrave">
          1372 778 -46 callsubr
          -244 -661 -54 callsubr
        </CharString>
        <CharString name="Yhookabove">
          1372 762 -15 callsubr
          -524 -718 -54 callsubr
        </CharString>
        <CharString name="Yicyrillic">
          704 180 -66 callsubr
          -65 -1410 -79 callsubr
          -93 callsubr
          -107 callsubr
          -76 callsubr
        </CharString>
        <CharString name="Ymacron">
          1372 476 -45 callsubr
          -238 -570 -54 callsubr
        </CharString>
        <CharString name="Ytilde">
          1372 858 -43 callsubr
          -620 -405 -54 callsubr
        </CharString>
        <CharString name="Z">
          1259 1167 hmoveto
          42 callsubr
          endchar
        </CharString>
        <CharString name="Zacute">
          1259 606 -95 callsubr
          654 -1570 rmoveto
          42 callsubr
          endchar
        </CharString>
        <CharString name="Zcaron">
          1259 825 -75 callsubr
          251 -1849 rmoveto
          42 callsubr
          endchar
        </CharString>
        <CharString name="Zcircumflex">
          1259 446 -74 callsubr
          812 -1570 rmoveto
          42 callsubr
          endchar
        </CharString>
        <CharString name="Zdotaccent">
          1259 626 -89 callsubr
          541 -1610 rmoveto
          42 callsubr
          endchar
        </CharString>
        <CharString name="Zdotbelow">
          1259 1167 hmoveto
          42 callsubr
          549 -218 -96 callsubr
        </CharString>
        <CharString name="Zecyrillic">
          1275 1181 419 rmoveto
          222 -156 115 -228 27 vhcurveto
          176 39 143 115 183 vvcurveto
          206 -149 148 -343 -202 -170 -56 -59 -85 vhcurveto
          -12 -305 rlineto
          70 hlineto
          230 57 121 81 199 hhcurveto
          185 104 -107 -169 -173 -115 -118 -214 hvcurveto
          -142 -88 142 hlineto
          248 138 -104 -204 -204 -152 -119 -214 -196 -133 79 245 -58 hvcurveto
          -70 hlineto
          12 -304 rlineto
          -67 95 187 -62 185 hhcurveto
          322 255 178 271 hvcurveto
          endchar
        </CharString>
        <CharString name="Zetagreek">
          1259 1167 hmoveto
          42 callsubr
          endchar
        </CharString>
        <CharString name="Zhecyrillic">
          1977 281 hmoveto
          453 704 rlineto
          147 -510 hlineto
          -87 -15 -17 -152 -14 vhcurveto
          -76 540 76 vlineto
          -152 14 -15 17 87 vvcurveto
          510 147 vlineto
          453 -704 122 callsubr
          -319 -391 rcurveline
          -146 455 hlineto
          87 15 17 152 14 vhcurveto
          76 -540 -76 vlineto
          152 -14 15 -17 -87 vvcurveto
          -455 -146 vlineto
          -319 391 -107 132 18 38 168 12 rlinecurve
          76 -501 -76 vlineto
          128 -22 46 -41 148 -166 rrcurveto
          264 -298 -318 -490 -134 -207 -55 -53 -81 -21 rlinecurve
          -70 vlineto
          endchar
        </CharString>
        <CharString name="Zlinebelow">
          1259 1167 hmoveto
          42 callsubr
          276 -376 -77 callsubr
        </CharString>
        <CharString name="a">
          1105 392 -22 -94 callsubr
        </CharString>
        <CharString name="a.dnum">
          708 246 -13 112 callsubr
        </CharString>
        <CharString name="a.numr">
          708 246 648 112 callsubr
        </CharString>
        <CharString name="a.sups">
          708 246 833 112 callsubr
        </CharString>
        <CharString name="aacute">
          1105 490 -90 callsubr
          -3 -1187 -94 callsubr
        </CharString>
        <CharString name="abreve">
          1105 520 -17 callsubr
          -128 -1198 -94 callsubr
        </CharString>
        <CharString name="abreveacute">
          1105 787 -31 callsubr
          267 -293 -25 callsubr
          -128 -1161 -94 callsubr
        </CharString>
        <CharString name="abrevecyrillic">
          1105 520 1171 rmoveto
          78 callsubr
          -128 -1193 -94 callsubr
        </CharString>
        <CharString name="abrevedotbelow">
          1105 520 -17 callsubr
          -128 -1198 34 callsubr
          274 -680 -97 callsubr
        </CharString>
        <CharString name="abrevegrave">
          1105 253 -21 callsubr
          267 -522 -25 callsubr
          -128 -1161 -94 callsubr
        </CharString>
        <CharString name="abrevehookabove">
          1105 515 1652 rmoveto
          -69 -61 -24 -26 -33 hvcurveto
          -70 vlineto
          15 25 47 134 callsubr
          -92 42 -92 vhcurveto
          5 -513 -25 callsubr
          -128 -1161 -94 callsubr
        </CharString>
        <CharString name="abrevetilde">
          1105 634 17 callsubr
          -114 -317 -25 callsubr
          -128 -1161 -94 callsubr
        </CharString>
        <CharString name="acaron">
          1105 728 -67 callsubr
          -431 -1549 -94 callsubr
        </CharString>
        <CharString name="acircumflex">
          1105 312 -71 callsubr
          175 -1187 -94 callsubr
        </CharString>
        <CharString name="acircumflexacute">
          1105 787 -31 callsubr
          -295 vmoveto
          -47 callsubr
          139 -1243 -94 callsubr
        </CharString>
        <CharString name="acircumflexdotbelow">
          1105 312 -71 callsubr
          175 -1187 34 callsubr
          274 -680 -97 callsubr
        </CharString>
        <CharString name="acircumflexgrave">
          1105 253 -21 callsubr
          -524 vmoveto
          -47 callsubr
          139 -1243 -94 callsubr
        </CharString>
        <CharString name="acircumflexhookabove">
          1105 728 83 callsubr
          139 -1243 -94 callsubr
        </CharString>
        <CharString name="acircumflextilde">
          1105 634 17 callsubr
          98 callsubr
          139 -1243 -94 callsubr
        </CharString>
        <CharString name="acute">
          1024 482 -90 callsubr
          endchar
        </CharString>
        <CharString name="acutecmb">
          0 -30 -90 callsubr
          endchar
        </CharString>
        <CharString name="acutecmb.short">
          0 -20 1127 rmoveto
          -2 callgsubr
          endchar
        </CharString>
        <CharString name="acutedotaccentcmb">
          0 1420 vmoveto
          50 callsubr
          267 -190 -87 callgsubr
          endchar
        </CharString>
        <CharString name="acutedotaccentcmb.short">
          0 1750 vmoveto
          92 callsubr
          -8 callgsubr
          endchar
        </CharString>
        <CharString name="acyrillic">
          1105 392 -22 -94 callsubr
        </CharString>
        <CharString name="adblgrave">
          1105 262 -24 callsubr
          -345 -1187 -94 callsubr
        </CharString>
        <CharString name="adieresis">
          1105 291 -63 callsubr
          -357 -1257 -94 callsubr
        </CharString>
        <CharString name="adieresismacron">
          1105 253 57 callsubr
          106 -433 -70 callsubr
          -289 -1178 -94 callsubr
        </CharString>
        <CharString name="adotaccent">
          1105 520 -72 callsubr
          -128 -1250 -94 callsubr
        </CharString>
        <CharString name="adotbelow">
          1105 392 -22 34 callsubr
          274 -680 -97 callsubr
        </CharString>
        <CharString name="adotmacron">
          1105 253 137 callsubr
          -128 -1180 -94 callsubr
        </CharString>
        <CharString name="ae">
          1672 396 -22 110 callsubr
        </CharString>
        <CharString name="aeacute">
          1672 796 -90 callsubr
          -305 -1187 110 callsubr
        </CharString>
        <CharString name="aemacron">
          1672 532 -52 callsubr
          -136 -1421 110 callsubr
        </CharString>
        <CharString name="agrave">
          1105 550 -58 callsubr
          160 -1539 -94 callsubr
        </CharString>
        <CharString name="ahookabove">
          1105 549 -37 callsubr
          -157 -1557 -94 callsubr
        </CharString>
        <CharString name="ainvertedbreve">
          1105 520 58 callsubr
          -128 -1539 -94 callsubr
        </CharString>
        <CharString name="alphagreek">
          1289 481 -22 148 callsubr
        </CharString>
        <CharString name="alphatonosgreek">
          1289 636 1164 53 callsubr
          -69 -1186 148 callsubr
        </CharString>
        <CharString name="amacron">
          1105 226 -52 callsubr
          166 -1421 -94 callsubr
        </CharString>
        <CharString name="ampersand">
          1576 511 -27 rmoveto
          192 150 88 175 148 hvcurveto
          256 -236 rlineto
          297 70 hlineto
          -81 24 -66 48 -203 187 rrcurveto
          -79 73 131 182 132 183 55 29 111 13 rlinecurve
          76 -482 -76 vlineto
          167 -26 16 -43 -101 -152 rrcurveto
          -88 -133 -350 320 -12 11 -12 11 -11 11 rlinecurve
          225 104 95 116 143 vvcurveto
          184 -150 120 -222 -230 -161 -146 -183 -127 52 -102 137 -144 vhcurveto
          -237 -99 -101 -130 -171 vvcurveto
          -247 184 -153 238 vhcurveto
          -84 1213 rmoveto
          106 76 78 126 124 75 -91 -126 -135 -66 -84 -134 -77 vhcurveto
          -151 147 -50 81 101 vvcurveto
          -145 -730 rmoveto
          121 65 80 130 65 vhcurveto
          26 -26 29 -28 32 -29 383 -354 rcurveline
          -125 -102 -103 -57 -116 hhcurveto
          -185 -159 141 212 hvcurveto
          endchar
        </CharString>
        <CharString name="anoteleiagreek">
          548 274 756 rmoveto
          90 callsubr
          endchar
        </CharString>
        <CharString name="aogonek">
          1101 392 -22 rmoveto
          147 124 68 77 59 hvcurveto
          -89 22 71 -50 100 4 5 0 4 hhcurveto
          -171 -113 -62 -91 -97 vvcurveto
          -109 91 -64 106 80 72 27 39 36 vhcurveto
          76 vlineto
          -18 -20 -36 -13 -45 hhcurveto
          -54 -50 37 75 88 50 81 152 129 hvcurveto
          70 vlineto
          -7 -15 -21 -3 -22 hhcurveto
          -60 -50 31 90 hvcurveto
          498 vlineto
          215 -143 98 -226 -224 -191 -94 -139 -65 51 -46 64 65 49 45 61 41 -22 36 -32 18 vhcurveto
          26 46 60 13 66 hhcurveto
          143 100 -59 -179 hvcurveto
          -79 vlineto
          -238 -52 rlineto
          -269 -59 -114 -93 -165 vvcurveto
          -148 128 -107 170 vhcurveto
          -98 290 rmoveto
          107 74 60 194 43 vhcurveto
          153 33 rlineto
          -310 vlineto
          -66 -46 -83 -41 -97 hhcurveto
          -114 -81 65 109 hvcurveto
          endchar
        </CharString>
        <CharString name="approxequal">
          1183 841 763 rmoveto
          -136 -175 218 -182 hhcurveto
          -167 -110 -106 -244 hvcurveto
          118 hlineto
          -79 callgsubr
          -474 vmoveto
          -48 callgsubr
          -79 callgsubr
          endchar
        </CharString>
        <CharString name="aring">
          1105 249 15 callsubr
          -11 -1369 -94 callsubr
        </CharString>
        <CharString name="aringacute">
          1105 787 1524 -88 callgsubr
          173 callsubr
          -165 -1211 -94 callsubr
        </CharString>
        <CharString name="aringbelow">
          1105 392 -22 34 callsubr
          3 -572 119 callsubr
        </CharString>
        <CharString name="asciicircum">
          1183 562 1444 rmoveto
          -452 -597 90 -85 391 512 388 -512 95 85 -452 597 rlineto
          endchar
        </CharString>
        <CharString name="asciitilde">
          1183 841 539 rmoveto
          -48 callgsubr
          163 5 58 56 88 138 174 -219 182 hhcurveto
          167 110 107 244 hvcurveto
          -119 hlineto
          -162 -4 -58 -57 -89 hhcurveto
          endchar
        </CharString>
        <CharString name="asterisk">
          767 363 1153 rmoveto
          41 hlineto
          51 219 rlineto
          61 16 -39 41 -48 hhcurveto
          -49 -38 -41 -61 16 hvcurveto
          31 -255 rmoveto
          19 36 -156 152 rlineto
          -44 45 -56 -12 -24 -43 -24 -41 15 -55 62 -17 rrcurveto
          268 -29 rmoveto
          18 -36 210 65 rlineto
          61 17 15 55 -23 41 -25 43 -56 12 -44 -45 rrcurveto
          -197 -225 rmoveto
          -19 37 -208 -66 rlineto
          -61 -17 -16 -55 24 -41 24 -43 56 -12 44 45 rrcurveto
          215 189 rmoveto
          -18 -37 156 -152 rlineto
          44 -45 56 12 25 43 24 41 -16 55 -61 17 rrcurveto
          -228 29 rmoveto
          -41 hlineto
          -50 -218 rlineto
          -62 -16 38 -41 49 hhcurveto
          48 39 41 62 -16 hvcurveto
          endchar
        </CharString>
        <CharString name="at">
          1989 590 370 rmoveto
          -208 80 -125 139 109 109 57 143 79 vhcurveto
          -132 -17 64 -85 153 hhcurveto
          292 279 263 424 418 -309 288 -487 -597 -372 -479 -515 -495 327 -330 439 178 182 48 69 81 hvcurveto
          4 76 rlineto
          -64 -126 -124 -24 -170 hhcurveto
          -394 -278 277 459 430 318 444 536 402 271 -221 -388 -372 -230 -197 -172 -77 -22 34 91 19 hvcurveto
          152 709 -107 0 -76 -109 rlineto
          77 -28 -69 59 -111 hhcurveto
          -257 -190 -320 -302 hvcurveto
          181 -8 rmoveto
          254 119 283 177 85 50 -67 -91 3 vhcurveto
          -62 -291 rlineto
          -160 -34 -110 -136 -110 hhcurveto
          -78 -40 85 123 hvcurveto
          endchar
        </CharString>
        <CharString name="atilde">
          1105 641 -56 callsubr
          -249 -1236 -94 callsubr
        </CharString>
        <CharString name="austral">
          1440 214 273 rmoveto
          -58 -158 -24 -24 -133 -15 rrcurveto
          -76 465 76 vlineto
          -162 20 -20 26 51 146 rrcurveto
          37 109 611 0 38 -109 51 -145 -20 -27 -162 -20 rlinecurve
          -76 552 76 vlineto
          -126 15 -29 24 -56 152 -40 110 rcurveline
          251 74 -277 hlineto
          -76 208 rlineto
          353 74 -379 hlineto
          -257 711 -161 0 -260 -711 rlineto
          -383 -74 355 hlineto
          -76 -208 rlineto
          -279 -74 252 hlineto
          241 356 rmoveto
          182 533 184 -533 rlineto
          -463 -282 rmoveto
          71 208 417 0 72 -208 rlineto
          endchar
        </CharString>
        <CharString name="austral.tnum">
          1183 451 vmoveto
          -74 200 vlineto
          -31 -107 -45 -157 -12 -27 -112 -10 rlinecurve
          -76 371 76 vlineto
          -125 12 -13 18 45 163 rrcurveto
          30 108 471 0 29 -107 45 -164 -13 -17 -129 -13 rlinecurve
          -76 472 76 vlineto
          -111 10 -12 25 -47 159 -31 107 rcurveline
          202 74 -223 hlineto
          -60 207 rlineto
          283 74 -304 hlineto
          -205 712 -164 0 -207 -712 rlineto
          -304 -74 282 hlineto
          -60 -207 rlineto
          184 281 rmoveto
          139 504 137 -504 rlineto
          -354 -281 rmoveto
          58 207 317 0 56 -207 rlineto
          endchar
        </CharString>
        <CharString name="b">
          130 callsubr
          endchar
        </CharString>
        <CharString name="backslash">
          652 498 -280 rmoveto
          155 hlineto
          -498 1860 rlineto
          -156 hlineto
          endchar
        </CharString>
        <CharString name="baht">
          1321 87 30 rmoveto
          560 -219 74 221 hlineto
          288 17 201 137 243 vvcurveto
          216 -159 117 -238 22 vhcurveto
          181 28 135 102 176 vvcurveto
          185 -135 122 -273 15 vhcurveto
          221 -74 -219 -560 -76 vlineto
          -26 callgsubr
          373 693 rmoveto
          527 vlineto
          129 -5 20 -1 20 -1 18 -2 rlinecurve
          -517 vlineto
          -1 -9 -9 0 -9 hhcurveto
          305 259 rmoveto
          -139 -73 -84 -131 -26 vhcurveto
          495 vlineto
          144 -35 60 -87 -124 vvcurveto
          -465 -348 rmoveto
          160 hlineto
          9 9 0 9 hhcurveto
          -583 vlineto
          -19 -2 -19 -1 -20 -1 -129 -5 rcurveline
          538 299 rmoveto
          -162 -105 -86 -172 -32 vhcurveto
          567 vlineto
          179 -25 98 -96 -166 vvcurveto
          endchar
        </CharString>
        <CharString name="baht.tnum">
          1183 65 31 rmoveto
          532 -220 74 221 hlineto
          267 16 208 142 230 -50 callgsubr
          162 -119 119 -271 13 vhcurveto
          221 -74 -220 -532 -76 vlineto
          -25 callgsubr
          362 690 rmoveto
          531 vlineto
          137 -3 rlineto
          11 11 -1 -1 11 hvcurveto
          -525 vlineto
          -1 -11 -11 0 -11 hhcurveto
          295 278 rmoveto
          -128 -65 -100 -123 -36 vhcurveto
          501 vlineto
          119 -31 69 -82 -124 vvcurveto
          -432 -363 rmoveto
          137 hlineto
          11 11 0 -1 11 hvcurveto
          -591 vlineto
          -11 -11 -1 -11 hhcurveto
          -137 -3 rlineto
          508 296 rmoveto
          -164 -115 -88 -149 -30 vhcurveto
          574 vlineto
          168 -28 96 -97 -167 vvcurveto
          endchar
        </CharString>
        <CharString name="bar">
          652 249 -280 rmoveto
          155 1860 -155 hlineto
          endchar
        </CharString>
        <CharString name="bdotaccent">
          1220 273 1671 rmoveto
          -21 callgsubr
          845 -1158 107 callsubr
          159 callsubr
          endchar
        </CharString>
        <CharString name="bdotbelow">
          130 callsubr
          -284 -907 -97 callsubr
        </CharString>
        <CharString name="becyrillic">
          1238 1136 501 rmoveto
          307 -194 191 -297 -198 -145 -112 -158 -74 vhcurveto
          -1 16 0 17 18 vvcurveto
          226 93 180 278 31 vhcurveto
          124 14 275 31 87 61 15 179 rlinecurve
          -76 hlineto
          -17 -50 -46 -16 -220 -25 -209 -24 -126 -61 -106 -104 rrcurveto
          -129 -129 -63 -199 -315 vvcurveto
          -358 185 -243 315 285 244 199 324 vhcurveto
          -212 -18 rmoveto
          -227 -98 -174 -199 -185 -113 174 239 231 98 169 197 179 121 -171 -241 vhcurveto
          endchar
        </CharString>
        <CharString name="betagreek">
          1180 154 -460 rmoveto
          203 hlineto
          -3 200 -2 179 -2 158 rrcurveto
          -54 58 105 -49 122 hhcurveto
          232 226 155 281 249 -167 153 -209 32 hvcurveto
          145 21 155 120 184 vvcurveto
          205 -148 140 -266 -252 -197 -143 -378 vhcurveto
          189 83 rmoveto
          216 89 117 170 151 79 -107 -155 -175 -120 -102 -232 4 vhcurveto
          -146 vlineto
          269 -6 143 -137 -213 vvcurveto
          -192 -126 -100 -163 -112 -90 41 62 -52 vhcurveto
          -5 487 -1 274 132 vvcurveto
          endchar
        </CharString>
        <CharString name="bitcoin">
          1319 87 30 rmoveto
          395 -219 74 219 102 hlineto
          38 37 2 4 35 hvcurveto
          -225 74 236 vlineto
          221 45 145 130 207 vvcurveto
          216 -158 117 -239 22 vhcurveto
          181 28 135 102 176 vvcurveto
          155 -94 111 -191 41 vhcurveto
          236 -74 -225 vlineto
          4 -34 -37 2 -39 hhcurveto
          -102 219 -74 -219 -395 -76 hlineto
          -26 callgsubr
          836 952 rmoveto
          -171 -111 -88 -194 vhcurveto
          -158 527 hlineto
          127 -5 rlineto
          241 -9 95 -97 -157 vvcurveto
          73 -641 rmoveto
          -200 -161 -84 -248 -10 vhcurveto
          -127 -5 rlineto
          592 158 vlineto
          243 135 -98 -195 hvcurveto
          endchar
        </CharString>
        <CharString name="bitcoin.tnum">
          1183 65 31 rmoveto
          362 -220 74 220 120 hlineto
          31 31 2 3 30 hvcurveto
          -225 74 237 vlineto
          209 45 150 132 195 -50 callgsubr
          137 -84 106 -190 37 vhcurveto
          235 -74 -224 vlineto
          3 -29 -30 1 -33 hhcurveto
          -120 220 -74 -220 -362 -76 hlineto
          -25 callgsubr
          793 968 rmoveto
          -161 -101 -117 -193 vhcurveto
          -136 531 hlineto
          136 -3 rlineto
          183 -4 111 -88 -158 vvcurveto
          77 -664 rmoveto
          -200 -174 -88 -197 -4 vhcurveto
          -136 -3 rlineto
          596 136 vlineto
          233 138 -101 -200 hvcurveto
          endchar
        </CharString>
        <CharString name="blinebelow">
          130 callsubr
          -557 -857 -77 callsubr
        </CharString>
        <CharString name="braceleft">
          652 388 959 rmoveto
          280 vlineto
          145 34 120 170 vhcurveto
          76 -46 vlineto
          -207 -115 -135 -199 hvcurveto
          -340 vlineto
          -154 -92 -68 -111 vhcurveto
          -63 vlineto
          111 92 -68 -154 hvcurveto
          -344 vlineto
          -200 115 -135 207 vhcurveto
          46 76 hlineto
          -170 -34 120 146 hvcurveto
          283 vlineto
          176 -70 104 -153 27 vhcurveto
          153 28 70 103 176 vvcurveto
          endchar
        </CharString>
        <CharString name="braceright">
          652 264 959 rmoveto
          -176 70 -103 153 -28 vhcurveto
          -153 -27 -70 -104 -176 vvcurveto
          -283 vlineto
          -146 -34 -120 -170 vhcurveto
          -76 46 vlineto
          207 115 135 200 hvcurveto
          344 vlineto
          154 92 68 111 vhcurveto
          63 vlineto
          -111 -92 68 154 hvcurveto
          340 vlineto
          199 -115 135 -207 vhcurveto
          -46 -76 hlineto
          170 34 -120 -145 hvcurveto
          endchar
        </CharString>
        <CharString name="bracketleft">
          652 162 -280 rmoveto
          412 76 -238 1708 238 76 -412 hlineto
          endchar
        </CharString>
        <CharString name="bracketright">
          652 490 1580 rmoveto
          -412 -76 238 -1708 -238 -76 412 hlineto
          endchar
        </CharString>
        <CharString name="breve">
          1024 512 -17 callsubr
          endchar
        </CharString>
        <CharString name="breveacutecmb">
          -105 callgsubr
          267 -293 -25 callsubr
          endchar
        </CharString>
        <CharString name="breveacutecmb.short">
          -106 callgsubr
          273 -239 -2 callsubr
          endchar
        </CharString>
        <CharString name="brevebelowcmb">
          0 -457 vmoveto
          121 callsubr
        </CharString>
        <CharString name="brevecmb">
          0 1176 vmoveto
          181 callsubr
          endchar
        </CharString>
        <CharString name="brevecmb.short">
          0 1158 vmoveto
          182 callsubr
          endchar
        </CharString>
        <CharString name="brevecyrilliccmb">
          0 1171 vmoveto
          78 callsubr
          endchar
        </CharString>
        <CharString name="brevecyrilliccmb.short">
          0 1605 vmoveto
          79 callsubr
          endchar
        </CharString>
        <CharString name="brevegravecmb">
          0 -267 -21 callsubr
          267 -522 -25 callsubr
          endchar
        </CharString>
        <CharString name="brevegravecmb.short">
          0 -274 63 callsubr
          274 -434 -2 callsubr
          endchar
        </CharString>
        <CharString name="brevehookabovecmb">
          0 -5 1652 rmoveto
          -69 -61 -24 -26 -33 hvcurveto
          -70 vlineto
          15 25 47 134 callsubr
          -92 42 -92 vhcurveto
          5 -513 -25 callsubr
          endchar
        </CharString>
        <CharString name="brevehookabovecmb.short">
          0 -5 175 callsubr
          endchar
        </CharString>
        <CharString name="brevetildecmb">
          0 114 17 callsubr
          -114 -317 -25 callsubr
          endchar
        </CharString>
        <CharString name="brevetildecmb.short">
          0 117 1782 rmoveto
          84 73 47 111 hvcurveto
          -83 hlineto
          -43 -27 -17 -38 -25 -25 6 14 -40 vhcurveto
          -28 9 rlineto
          15 -42 -38 9 -96 callgsubr
          17 38 25 25 -6 -97 callgsubr
          -117 -261 -2 callsubr
          endchar
        </CharString>
        <CharString name="brokenbar">
          652 249 789 rmoveto
          155 791 -155 hlineto
          -1860 vmoveto
          155 791 -155 hlineto
          endchar
        </CharString>
        <CharString name="bullet">
          780 390 392 rmoveto
          104 86 85 106 107 -86 85 -104 -103 -87 -85 -107 -106 87 -85 103 hvcurveto
          endchar
        </CharString>
        <CharString name="c">
          1030 592 -22 20 callsubr
        </CharString>
        <CharString name="cacute">
          1030 574 -90 callsubr
          113 -1187 20 callsubr
        </CharString>
        <CharString name="caret">
          548 248 hmoveto
          -283 -360 74 -75 234 297 234 -297 77 75 -282 360 rlineto
          endchar
        </CharString>
        <CharString name="caron">
          1024 720 -67 callsubr
          endchar
        </CharString>
        <CharString name="caroncmb">
          0 208 -67 callsubr
          endchar
        </CharString>
        <CharString name="caroncmb.short">
          0 199 1406 135 callsubr
          endchar
        </CharString>
        <CharString name="carondotaccentcmb">
          0 1420 vmoveto
          50 callsubr
          -28 callgsubr
          endchar
        </CharString>
        <CharString name="carondotaccentcmb.short">
          0 1770 vmoveto
          92 callsubr
          -59 callgsubr
          endchar
        </CharString>
        <CharString name="caronslovak">
          1024 472 1109 5 callsubr
          endchar
        </CharString>
        <CharString name="caronslovakcmb">
          0 92 1109 5 callsubr
          endchar
        </CharString>
        <CharString name="ccaron">
          1030 812 -67 callsubr
          -315 -1549 20 callsubr
        </CharString>
        <CharString name="ccedilla">
          1030 553 64 callsubr
          61 91 148 9 116 59 65 75 rlinecurve
          115 callsubr
          -295 189 -194 248 -23 vhcurveto
          -97 -133 -65 callsubr
          21 callsubr
          endchar
        </CharString>
        <CharString name="ccedillaacute">
          1030 574 -90 callsubr
          74 -1655 rmoveto
          -23 callsubr
          61 91 148 9 116 59 65 75 rlinecurve
          115 callsubr
          -295 189 -194 248 -23 vhcurveto
          -97 -133 -65 callsubr
          21 callsubr
          endchar
        </CharString>
        <CharString name="ccircumflex">
          1030 396 -71 callsubr
          291 -1187 20 callsubr
        </CharString>
        <CharString name="cdotaccent">
          1030 604 -72 callsubr
          -12 -1250 20 callsubr
        </CharString>
        <CharString name="cedi">
          1356 729 -189 rmoveto
          74 199 hlineto
          4 4 0 4 hhcurveto
          176 174 56 59 81 hvcurveto
          11 304 rlineto
          -69 hlineto
          -244 -59 -114 -70 -187 hhcurveto
          -8 -9 0 1 -8 hvcurveto
          1213 vlineto
          8 9 0 8 hhcurveto
          186 106 -82 -228 60 hvcurveto
          70 hlineto
          -12 304 rlineto
          60 -100 -134 51 -199 hhcurveto
          -2 199 -74 -202 hlineto
          -352 -30 -257 -243 -431 vvcurveto
          -431 277 -246 332 -35 vhcurveto
          -392 730 rmoveto
          324 143 209 249 43 vhcurveto
          -1196 vlineto
          -231 49 -161 225 346 vvcurveto
          endchar
        </CharString>
        <CharString name="cedi.tnum">
          1183 643 -189 rmoveto
          74 199 hlineto
          152 153 46 48 87 hvcurveto
          12 295 rlineto
          -70 hlineto
          -55 -223 -103 -63 -155 1 rrcurveto
          -7 -7 0 -7 hhcurveto
          1215 vlineto
          7 7 0 7 hhcurveto
          136 98 -70 -207 53 hvcurveto
          70 hlineto
          -12 295 -89 49 -113 37 -164 1 rlinecurve
          199 -74 -203 vlineto
          -312 -31 -235 -248 1 -424 1 -468 255 -216 290 -29 rrcurveto
          -331 732 rmoveto
          328 116 201 215 45 vhcurveto
          -1196 vlineto
          -204 45 -127 200 377 vvcurveto
          endchar
        </CharString>
        <CharString name="cedilla">
          1024 481 -490 rmoveto
          122 120 66 121 121 -97 68 -121 3 hvcurveto
          74 111 rlineto
          37 -70 vlineto
          -139 -189 -65 callsubr
          -28 -60 -57 -56 -29 -69 -57 -58 17 25 -35 hvcurveto
          -76 vlineto
          -38 42 72 -24 89 hhcurveto
          endchar
        </CharString>
        <CharString name="cedillacmb">
          0 -31 64 callsubr
          75 111 rlineto
          37 -70 vlineto
          -139 -189 -65 callsubr
          21 callsubr
          endchar
        </CharString>
        <CharString name="cent">
          1043 631 155 callsubr
          -301 198 -194 -7 callgsubr
          134 145 38 8 callgsubr
        </CharString>
        <CharString name="cent.1">
          1029 630 -10 callgsubr
          -64 -101 -38 -99 -31 callgsubr
          48 -8 -19 37 hvcurveto
          -33 -19 -22 -37 -42 vvcurveto
          -64 49 -50 65 65 50 52 67 136 -124 85 -200 4 vhcurveto
          199 -74 -202 vlineto
          -248 -26 -206 -194 -307 vvcurveto
          -302 198 -197 256 -16 vhcurveto
          -200 vlineto
          endchar
        </CharString>
        <CharString name="cent.1.tnum">
          1183 657 -10 callgsubr
          -63 -102 -38 -98 -31 callgsubr
          47 -8 -19 37 hvcurveto
          -32 -19 -22 -37 -42 vvcurveto
          -64 49 -50 65 64 51 52 67 136 -124 85 -201 4 vhcurveto
          199 -74 -202 vlineto
          -247 -26 -206 -194 -307 vvcurveto
          -302 197 -196 256 -17 vhcurveto
          -200 vlineto
          endchar
        </CharString>
        <CharString name="cent.tnum">
          1183 652 155 callsubr
          -300 198 -195 -7 callgsubr
          133 145 39 8 callgsubr
        </CharString>
        <CharString name="checyrillic">
          1233 176 712 rmoveto
          -227 139 -106 192 123 111 31 40 69 vhcurveto
          -283 vlineto
          -73 -19 -12 -141 -6 vhcurveto
          -76 507 76 vlineto
          -130 6 -19 11 74 vvcurveto
          667 vlineto
          74 19 11 130 6 vhcurveto
          76 -493 -76 vlineto
          129 -6 17 -11 -73 vvcurveto
          -309 vlineto
          -19 -42 -97 -22 -82 hhcurveto
          -141 -75 71 172 hvcurveto
          107 vlineto
          73 18 11 125 6 vhcurveto
          76 -489 -76 vlineto
          131 -6 18 -11 -74 vvcurveto
          endchar
        </CharString>
        <CharString name="chigreek">
          1117 268 -460 rmoveto
          231 643 158 -355 rlineto
          -222 92 70 -83 131 hhcurveto
          70 49 29 37 40 hvcurveto
          76 vlineto
          -10 -15 -27 -9 -31 hhcurveto
          -73 -43 42 173 -81 hvcurveto
          -196 438 126 233 135 234 151 235 rlinecurve
          -229 hlineto
          -225 -607 -141 314 rlineto
          221 -92 -69 83 -131 hhcurveto
          -71 -49 -29 -37 -40 hvcurveto
          -76 vlineto
          10 16 27 9 30 hhcurveto
          73 47 -41 -174 78 hvcurveto
          178 -397 -138 -263 -136 -246 -143 -228 rlinecurve
          endchar
        </CharString>
        <CharString name="circumflex">
          1024 304 -71 callsubr
          endchar
        </CharString>
        <CharString name="circumflexacutecmb">
          -105 callgsubr
          -295 vmoveto
          -47 callsubr
          endchar
        </CharString>
        <CharString name="circumflexacutecmb.short">
          0 274 1815 7 callsubr
          -1 -253 rmoveto
          49 callsubr
          endchar
        </CharString>
        <CharString name="circumflexbelowcmb">
          0 -193 -468 -64 callsubr
        </CharString>
        <CharString name="circumflexcmb">
          0 -208 -71 callsubr
          endchar
        </CharString>
        <CharString name="circumflexcmb.short">
          0 -180 1127 -57 callgsubr
          endchar
        </CharString>
        <CharString name="circumflexgravecmb">
          0 -267 -21 callsubr
          -524 vmoveto
          -47 callsubr
          endchar
        </CharString>
        <CharString name="circumflexgravecmb.short">
          0 -274 1815 55 callsubr
          -448 vmoveto
          49 callsubr
          endchar
        </CharString>
        <CharString name="circumflexhookabovecmb">
          0 208 83 callsubr
          endchar
        </CharString>
        <CharString name="circumflexhookabovecmb.short">
          0 222 75 callsubr
          endchar
        </CharString>
        <CharString name="circumflextildecmb">
          0 114 17 callsubr
          98 callsubr
          endchar
        </CharString>
        <CharString name="circumflextildecmb.short">
          0 117 72 callsubr
          endchar
        </CharString>
        <CharString name="colon">
          548 274 697 143 callsubr
          -713 vmoveto
          90 callsubr
          endchar
        </CharString>
        <CharString name="colon.uc">
          548 274 942 143 callsubr
          -713 vmoveto
          90 callsubr
          endchar
        </CharString>
        <CharString name="coloncurrency">
          1356 354 -189 rmoveto
          75 hlineto
          59 272 60 -29 64 -21 68 -11 rlinecurve
          -46 -211 75 0 44 201 rlineto
          -1 20 21 -1 21 hhcurveto
          176 173 60 60 82 hvcurveto
          11 304 rlineto
          -69 hlineto
          -247 -60 -113 -72 -187 hhcurveto
          -18 -17 1 2 -17 hvcurveto
          252 1158 69 -48 49 -83 34 -131 rlinecurve
          70 hlineto
          -12 304 -51 31 -60 29 -72 22 rlinecurve
          51 232 -76 0 -47 -215 rlineto
          11 -53 -59 6 -66 -7 -8 0 -7 hhcurveto
          43 198 -76 0 -44 -204 rlineto
          -340 -38 -246 -242 -421 vvcurveto
          -286 122 -205 179 -115 vhcurveto
          407 1208 rmoveto
          50 43 -6 -13 39 hvcurveto
          -256 -1179 rlineto
          -69 19 -61 35 -53 49 238 1091 rcurveline
          3 22 23 1 24 hhcurveto
          -491 -584 rmoveto
          302 124 202 219 61 vhcurveto
          -219 -1007 rlineto
          -78 107 -46 150 185 vvcurveto
          endchar
        </CharString>
        <CharString name="coloncurrency.tnum">
          1183 270 -189 rmoveto
          75 hlineto
          60 277 59 -34 65 -22 66 -12 rlinecurve
          -45 -209 75 0 44 200 rlineto
          -1 14 15 0 15 hhcurveto
          158 151 46 48 87 hvcurveto
          12 295 rlineto
          -70 hlineto
          -55 -223 -102 -63 -155 1 rrcurveto
          -16 -16 1 1 -16 hvcurveto
          245 1128 37 -44 30 -62 22 -86 rlinecurve
          70 hlineto
          -12 295 -34 18 -37 17 -42 14 rlinecurve
          51 237 -76 0 -47 -217 rlineto
          11 -54 -61 7 -70 -5 -5 0 -5 hhcurveto
          43 199 -76 0 -45 -205 rlineto
          -299 -42 -225 -246 1 -413 1 -290 98 -193 144 -112 rrcurveto
          399 1197 rmoveto
          50 44 -9 -22 39 hvcurveto
          -253 -1168 rlineto
          -70 21 -60 40 -48 61 233 1073 rcurveline
          3 21 22 1 22 hhcurveto
          -427 -583 rmoveto
          301 101 194 181 65 vhcurveto
          -209 -963 rlineto
          -47 100 -26 134 169 vvcurveto
          endchar
        </CharString>
        <CharString name="combiningcircle">
          73 callsubr
          endchar
        </CharString>
        <CharString name="comma">
          548 154 -283 127 callsubr
          endchar
        </CharString>
        <CharString name="commaaccentcmb">
          0 -23 -490 -73 callsubr
        </CharString>
        <CharString name="copyright">
          73 callsubr
          -341 675 rmoveto
          -225 171 -140 205 97 98 25 35 45 vhcurveto
          5 172 rlineto
          -44 hlineto
          -121 -28 -62 -41 -96 hhcurveto
          -136 -94 129 178 170 83 116 147 96 60 -43 -112 27 hvcurveto
          44 hlineto
          -5 173 rlineto
          32 -44 -86 20 -106 hhcurveto
          -216 -161 -140 -228 hvcurveto
          endchar
        </CharString>
        <CharString name="cruzeiro">
          1356 698 773 rmoveto
          -678 vlineto
          -214 68 -148 240 342 vvcurveto
          380 172 244 310 186 119 -80 -216 57 vhcurveto
          70 hlineto
          -12 305 rlineto
          49 -89 -149 47 -187 hhcurveto
          -391 -302 -270 -477 -484 327 -273 368 176 173 60 50 82 hvcurveto
          11 304 rlineto
          -69 hlineto
          -55 -224 -105 -76 -168 -8 rrcurveto
          511 vlineto
          67 81 79 20 98 hhcurveto
          28 28 -4 -4 22 hvcurveto
          8 11 5 21 20 vvcurveto
          44 -25 45 -76 -78 -75 -56 -114 -99 vhcurveto
          162 vlineto
          endchar
        </CharString>
        <CharString name="cruzeiro.tnum">
          1183 727 -30 rmoveto
          151 -1 143 33 79 43 12 295 rcurveline
          -70 hlineto
          -50 -200 -90 -64 -137 -5 rrcurveto
          516 vlineto
          67 81 79 20 98 hhcurveto
          28 29 -4 -4 21 hvcurveto
          8 11 6 21 20 vvcurveto
          44 -26 45 -76 -78 -75 -56 -114 -99 vhcurveto
          181 vlineto
          -148 -26 rlineto
          -700 vlineto
          -178 62 -123 201 391 vvcurveto
          418 164 205 276 149 84 -68 -195 49 vhcurveto
          70 hlineto
          -12 295 rlineto
          44 -83 -106 27 -158 hhcurveto
          -374 -274 -278 -467 -512 298 -245 332 hvcurveto
          endchar
        </CharString>
        <CharString name="currency">
          1183 590 168 rmoveto
          92 83 28 48 68 hvcurveto
          138 -138 95 96 -138 138 rlineto
          48 67 27 83 90 vvcurveto
          91 -28 84 -48 67 vhcurveto
          139 140 -95 95 -139 -140 rlineto
          48 -67 -83 28 -91 hhcurveto
          -90 -83 -28 -47 -68 hvcurveto
          -139 139 -95 -95 139 -140 rlineto
          -48 -67 -28 -84 -91 vvcurveto
          -91 28 -83 47 -67 vhcurveto
          -138 -137 95 -96 138 138 rlineto
          -48 67 83 -28 91 hhcurveto
          124 vmoveto
          -153 -121 120 168 171 121 117 154 153 121 -117 -171 -168 -121 -120 -154 hvcurveto
          endchar
        </CharString>
        <CharString name="d">
          26 callsubr
          8 callsubr
          endchar
        </CharString>
        <CharString name="dagger">
          1024 512 1467 rmoveto
          -52 -35 -48 -71 11 hvcurveto
          48 -314 rlineto
          7 6 12 3 10 hhcurveto
          11 11 -3 -7 6 hvcurveto
          48 314 rlineto
          71 11 -36 48 -51 hhcurveto
          -374 -528 rmoveto
          346 40 rlineto
          -6 6 -4 9 13 vvcurveto
          11 4 10 6 6 vhcurveto
          -346 29 rlineto
          748 -124 rmoveto
          124 vlineto
          -346 -29 rlineto
          7 -6 3 -10 -11 vvcurveto
          -13 -3 -9 -7 -6 vhcurveto
          -110 -272 rmoveto
          1 -112 13 -172 53 -453 rrcurveto
          30 hlineto
          53 453 13 172 1 112 1 89 -14 81 -41 102 rrcurveto
          -9 -6 -12 -4 -10 hhcurveto
          -11 -11 4 9 -6 hvcurveto
          -41 -102 -14 -81 1 -89 rrcurveto
          endchar
        </CharString>
        <CharString name="daggerdbl">
          1024 512 1467 rmoveto
          -52 -36 -48 -71 12 hvcurveto
          48 -298 rlineto
          8 6 12 3 10 hhcurveto
          11 11 -3 -8 6 hvcurveto
          48 298 rlineto
          71 12 -37 48 -51 hhcurveto
          -374 -509 rmoveto
          346 36 rlineto
          -6 6 -5 9 13 vvcurveto
          11 5 10 6 7 vhcurveto
          -346 32 rlineto
          748 -124 rmoveto
          124 vlineto
          -346 -32 rlineto
          8 -7 3 -10 -11 vvcurveto
          -13 -3 -9 -8 -6 vhcurveto
          -102 -272 rmoveto
          -75 15 -98 31 -99 vhcurveto
          9 6 12 4 10 hhcurveto
          11 11 -4 -9 6 hvcurveto
          31 99 15 98 75 vvcurveto
          75 -15 98 -31 99 vhcurveto
          -9 -6 -12 -4 -10 hhcurveto
          -11 -11 4 9 -6 hvcurveto
          -31 -99 -15 -98 -75 vvcurveto
          -300 -236 rmoveto
          -124 vlineto
          346 32 rlineto
          -7 7 -4 10 11 vvcurveto
          13 4 9 7 6 vhcurveto
          402 36 rmoveto
          -346 -36 rlineto
          7 -6 4 -9 -13 vvcurveto
          -11 -4 -10 -7 -7 vhcurveto
          346 -32 rlineto
          -374 -385 rmoveto
          52 36 48 71 -12 hvcurveto
          -48 298 rlineto
          -7 -6 -12 -3 -10 hhcurveto
          -11 -11 3 7 -6 hvcurveto
          -48 -298 rlineto
          -71 -12 37 -48 51 hhcurveto
          endchar
        </CharString>
        <CharString name="dbar">
          26 callsubr
          1011 147 94 -147 185 vlineto
          -198 -15 rlineto
          -170 -298 -94 298 -288 vlineto
          57 -59 -97 45 -112 hhcurveto
          -267 -209 -218 -317 hvcurveto
          -27 callgsubr
          endchar
        </CharString>
        <CharString name="dblgrave">
          1024 254 -24 callsubr
          endchar
        </CharString>
        <CharString name="dblgravecmb">
          0 -258 -24 callsubr
          endchar
        </CharString>
        <CharString name="dblgravecmb.short">
          0 -215 1407 -70 callgsubr
          endchar
        </CharString>
        <CharString name="dcaron">
          1245 1269 1107 5 callsubr
          -1095 -619 47 callsubr
          8 callsubr
          endchar
        </CharString>
        <CharString name="dcircumflexbelow">
          26 callsubr
          8 callsubr
          137 -974 -64 callsubr
        </CharString>
        <CharString name="dcommaaccent">
          26 callsubr
          8 callsubr
          319 -996 -73 callsubr
        </CharString>
        <CharString name="ddotaccent">
          1245 920 -89 callsubr
          -818 -1122 47 callsubr
          8 callsubr
          endchar
        </CharString>
        <CharString name="ddotbelow">
          26 callsubr
          8 callsubr
          330 -918 -97 callsubr
        </CharString>
        <CharString name="decyrillic">
          1192 1133 88 rmoveto
          -167 738 hlineto
          74 15 12 148 13 vhcurveto
          76 -969 -76 vlineto
          125 -13 17 -13 -2 -58 rrcurveto
          -5 -133 -10 -296 -44 -212 -80 -112 rlinecurve
          -120 hlineto
          -8 -386 rlineto
          76 hlineto
          277 84 13 21 139 hhcurveto
          485 hlineto
          138 13 -22 -276 84 hvcurveto
          76 hlineto
          -855 386 rmoveto
          64 101 44 185 15 334 8 205 rcurveline
          351 -825 hlineto
          endchar
        </CharString>
        <CharString name="degree">
          768 385 829 rmoveto
          162 133 125 161 161 -133 126 -162 -164 -132 -126 -161 -161 133 -125 163 hvcurveto
          105 vmoveto
          -94 -77 78 103 104 77 78 94 92 77 -78 -104 -103 -77 -78 -92 hvcurveto
          endchar
        </CharString>
        <CharString name="deltagreek">
          1169 909 1222 rmoveto
          106 167 rlineto
          72 -83 -156 57 -173 hhcurveto
          -232 -148 -119 -167 -131 81 -93 156 -73 hvcurveto
          25 -12 rlineto
          -221 -59 -162 -176 -253 vvcurveto
          -285 205 -172 272 273 215 183 313 231 -119 210 -245 113 vhcurveto
          -145 67 rlineto
          -120 56 -45 51 72 vvcurveto
          73 50 55 116 124 127 -73 -107 99 vhcurveto
          -597 -760 rmoveto
          3 197 94 153 164 70 29 -14 rcurveline
          173 -81 86 -167 -190 vvcurveto
          -220 -115 -128 -167 -165 -106 150 230 4 vhcurveto
          endchar
        </CharString>
        <CharString name="dieresis">
          1024 283 -63 callsubr
          endchar
        </CharString>
        <CharString name="dieresisacutecmb">
          -105 callgsubr
          106 -276 -70 callsubr
          endchar
        </CharString>
        <CharString name="dieresisacutecmb.short">
          -106 callgsubr
          121 -211 -55 callsubr
          endchar
        </CharString>
        <CharString name="dieresisbelowcmb">
          0 -213 -405 rmoveto
          91 callsubr
          426 hmoveto
          91 callsubr
          endchar
        </CharString>
        <CharString name="dieresiscaroncmb">
          0 267 1677 -99 callgsubr
          -165 50 0 241 165 rlineto
          -428 -438 -70 callsubr
          endchar
        </CharString>
        <CharString name="dieresiscaroncmb.short">
          0 274 1959 rmoveto
          -274 -93 -274 93 0 -69 249 -134 51 0 247 134 rlineto
          -425 -341 -55 callsubr
          endchar
        </CharString>
        <CharString name="dieresiscmb">
          0 -229 -63 callsubr
          endchar
        </CharString>
        <CharString name="dieresiscmb.short">
          0 -172 1165 -101 callgsubr
          endchar
        </CharString>
        <CharString name="dieresisgravecmb">
          0 -267 -21 callsubr
          106 -505 -70 callsubr
          endchar
        </CharString>
        <CharString name="dieresisgravecmb.short">
          0 -274 63 callsubr
          122 -406 -55 callsubr
          endchar
        </CharString>
        <CharString name="dieresismacroncmb">
          0 -267 57 callsubr
          106 -433 -70 callsubr
          endchar
        </CharString>
        <CharString name="dieresismacroncmb.short">
          0 -274 56 callsubr
          122 -354 -55 callsubr
          endchar
        </CharString>
        <CharString name="dieresistonosgreek">
          1024 540 84 callsubr
          endchar
        </CharString>
        <CharString name="dieresistonosgreekcmb">
          0 28 84 callsubr
          endchar
        </CharString>
        <CharString name="divide">
          1183 592 847 rmoveto
          -19 callgsubr
          -474 -331 rmoveto
          947 134 -947 hlineto
          474 -563 rmoveto
          -19 callgsubr
          endchar
        </CharString>
        <CharString name="djecyrillic">
          1272 142 callsubr
          -41 callsubr
          622 -104 callgsubr
          -495 -65 callgsubr
          539 vlineto
          204 -142 118 -207 -12 callsubr
          138 callsubr
        </CharString>
        <CharString name="dlinebelow">
          26 callsubr
          8 callsubr
          57 -868 -77 callsubr
        </CharString>
        <CharString name="dollar">
          -74 callgsubr
          -57 22 rlineto
          486 vlineto
          153 -12 91 -97 43 -175 rrcurveto
          -22 callgsubr
          62 -25 rlineto
          -550 vlineto
          -153 7 -131 83 -50 225 rrcurveto
          6 callgsubr
          -49 callgsubr
          75 108 -13 callgsubr
          168 -71 61 -72 -123 vvcurveto
          endchar
        </CharString>
        <CharString name="dollar.1">
          -74 callgsubr
          -117 46 rlineto
          -156 3 callgsubr
          102 -97 -189 46 vhcurveto
          -22 callgsubr
          116 -47 rlineto
          183 -73 66 7 callgsubr
          -141 80 236 -53 vhcurveto
          6 callgsubr
          endchar
        </CharString>
        <CharString name="dollar.1.tnum">
          -78 callgsubr
          -116 46 rlineto
          -157 3 callgsubr
          103 -97 -189 45 vhcurveto
          -23 callgsubr
          117 -47 rlineto
          183 -73 65 7 callgsubr
          -140 80 236 -54 vhcurveto
          5 callgsubr
          endchar
        </CharString>
        <CharString name="dollar.small">
          976 533 1 rmoveto
          202 vlineto
          194 16 151 113 164 vvcurveto
          166 -113 90 -187 50 vhcurveto
          -45 12 rlineto
          324 vlineto
          120 -11 92 -76 27 -136 rrcurveto
          70 hlineto
          -8 251 -56 37 -105 35 -140 4 rlinecurve
          202 -74 -202 vlineto
          -210 -12 -135 -105 -165 vvcurveto
          -161 119 -88 185 -49 vhcurveto
          41 -11 rlineto
          -344 vlineto
          -136 7 -116 75 -35 160 rrcurveto
          -70 hlineto
          8 -255 73 -47 125 -42 151 -4 rlinecurve
          -200 vlineto
          -170 991 rmoveto
          81 67 53 103 11 vhcurveto
          -303 vlineto
          -107 32 -63 42 84 vvcurveto
          414 -527 rmoveto
          -82 -64 -60 -106 -14 vhcurveto
          321 vlineto
          122 -37 48 -46 -82 vvcurveto
          endchar
        </CharString>
        <CharString name="dollar.small.1">
          973 527 hmoveto
          203 vlineto
          196 15 152 113 166 vvcurveto
          165 -113 89 -186 51 vhcurveto
          -81 22 rlineto
          -127 33 -76 42 93 vvcurveto
          92 85 54 125 134 105 -75 -147 28 vhcurveto
          70 hlineto
          -8 251 -56 38 -106 34 -142 4 rlinecurve
          201 -74 -203 vlineto
          -208 -13 -132 -105 -163 vvcurveto
          -161 119 -88 184 -49 vhcurveto
          82 -23 rlineto
          143 -39 55 -46 -89 vvcurveto
          -94 -84 -65 -133 -147 -125 77 165 -35 vhcurveto
          -70 hlineto
          8 -255 71 -46 123 -41 149 -5 rlinecurve
          -201 vlineto
          endchar
        </CharString>
        <CharString name="dollar.tnum">
          -78 callgsubr
          -57 23 rlineto
          485 vlineto
          154 -12 91 -97 42 -175 rrcurveto
          -23 callgsubr
          62 -25 rlineto
          -550 vlineto
          -153 7 -130 83 -51 225 rrcurveto
          5 callgsubr
          -49 callgsubr
          76 107 -13 callgsubr
          169 -70 60 -73 -123 vvcurveto
          endchar
        </CharString>
        <CharString name="dotaccent">
          1024 512 -72 callsubr
          endchar
        </CharString>
        <CharString name="dotaccentcmb">
          0 1228 vmoveto
          -21 callgsubr
          endchar
        </CharString>
        <CharString name="dotaccentcmb.short">
          0 1167 vmoveto
          -16 callgsubr
          endchar
        </CharString>
        <CharString name="dotbelowcmb">
          0 -412 vmoveto
          -35 callgsubr
        </CharString>
        <CharString name="dotbelowcmb.short">
          0 -204 vmoveto
          -32 callgsubr
        </CharString>
        <CharString name="dotlessi">
          611 410 1012 -106 callsubr
          -87 callsubr
          -84 callsubr
        </CharString>
        <CharString name="dotlessj">
          586 398 1012 -106 callsubr
          -50 callsubr
        </CharString>
        <CharString name="dotmacroncmb">
          0 -267 137 callsubr
          endchar
        </CharString>
        <CharString name="dotmacroncmb.short">
          0 -274 128 callsubr
          endchar
        </CharString>
        <CharString name="dotoperator">
          1183 592 392 rmoveto
          104 85 85 106 107 -85 85 -104 -103 -87 -85 -107 -106 87 -85 103 hvcurveto
          endchar
        </CharString>
        <CharString name="dzecyrillic">
          973 113 740 69 callsubr
          endchar
        </CharString>
        <CharString name="dzhecyrillic">
          1298 1075 838 rmoveto
          60 15 14 132 13 vhcurveto
          76 -482 -76 vlineto
          123 -13 15 -13 -57 vvcurveto
          -754 -458 754 vlineto
          -30 callsubr
          -10 callsubr
          396 vlineto
          85 12 -29 -269 39 hvcurveto
          82 hlineto
          269 39 12 29 85 hhcurveto
          396 76 hlineto
          -132 13 -15 14 60 vvcurveto
          endchar
        </CharString>
        <CharString name="e">
          28 callsubr
          -83 callsubr
        </CharString>
        <CharString name="eacute">
          1101 548 -90 callsubr
          -351 -672 -85 callsubr
          -83 callsubr
        </CharString>
        <CharString name="ebreve">
          1101 578 -17 callsubr
          -476 -683 -85 callsubr
          -83 callsubr
        </CharString>
        <CharString name="ecaron">
          1101 786 -67 callsubr
          -779 -1034 -85 callsubr
          -83 callsubr
        </CharString>
        <CharString name="ecedilla">
          1101 102 493 rmoveto
          -308 197 -190 263 -16 vhcurveto
          -96 -131 -65 callsubr
          21 callsubr
          -23 callsubr
          62 92 140 13 110 57 63 72 rlinecurve
          177 callsubr
        </CharString>
        <CharString name="ecedillabreve">
          1101 578 -17 callsubr
          -476 -683 rmoveto
          -308 197 -190 263 -16 vhcurveto
          -96 -131 -65 callsubr
          21 callsubr
          -23 callsubr
          62 92 140 13 110 57 63 72 rlinecurve
          177 callsubr
        </CharString>
        <CharString name="ecircumflex">
          1101 370 -71 callsubr
          -173 -672 -85 callsubr
          -83 callsubr
        </CharString>
        <CharString name="ecircumflexacute">
          1101 845 -31 callsubr
          -295 vmoveto
          -47 callsubr
          -209 -728 -85 callsubr
          -83 callsubr
        </CharString>
        <CharString name="ecircumflexbelow">
          28 callsubr
          38 callsubr
          -161 -1387 -64 callsubr
        </CharString>
        <CharString name="ecircumflexdotbelow">
          1101 370 -71 callsubr
          -173 -672 -85 callsubr
          38 callsubr
          32 -1331 -97 callsubr
        </CharString>
        <CharString name="ecircumflexgrave">
          1101 311 -21 callsubr
          -524 vmoveto
          -47 callsubr
          -209 -728 -85 callsubr
          -83 callsubr
        </CharString>
        <CharString name="ecircumflexhookabove">
          1101 786 83 callsubr
          -209 -728 -85 callsubr
          -83 callsubr
        </CharString>
        <CharString name="ecircumflextilde">
          1101 692 17 callsubr
          98 callsubr
          -209 -728 -85 callsubr
          -83 callsubr
        </CharString>
        <CharString name="ecyrillic">
          1045 591 -22 rmoveto
          170 134 62 84 71 hvcurveto
          76 vlineto
          -58 -64 -102 -38 -100 hhcurveto
          -215 -147 139 222 -24 hvcurveto
          418 -2 0 96 -422 -2 rlineto
          229 10 137 133 175 hhcurveto
          63 48 -8 -20 37 hvcurveto
          -31 -18 -20 -36 -40 vvcurveto
          -64 48 -49 64 64 50 51 66 137 -131 85 -209 -273 -240 -198 -331 -316 216 -200 273 vhcurveto
          endchar
        </CharString>
        <CharString name="edblgrave">
          1101 320 -24 callsubr
          -693 -672 -85 callsubr
          -83 callsubr
        </CharString>
        <CharString name="edieresis">
          1101 349 -63 callsubr
          -705 -742 -85 callsubr
          -83 callsubr
        </CharString>
</ttFont>
